<svg id="Capa_1" data-name="Capa 1" xmlns="http://www.w3.org/2000/svg" viewBox="0 0 19.84 19.84"><defs><style>.cls-1{fill:#fff;}</style></defs><title>checkmark-icon-white</title><path class="cls-1" d="M7.62,9.22a1,1,0,0,0-1.41,1.41l3,3a1,1,0,0,0,.71.29h0a1,1,0,0,0,.71-.34l7-7.93a1,1,0,0,0-1.49-1.31L9.9,11.45Z" transform="translate(0 0)"/><path class="cls-1" d="M18.85,8.93h0a1,1,0,0,0-1,1,8,8,0,0,1-8,7.94h0a8,8,0,0,1-8-7.94A8,8,0,0,1,9.9,2a9.29,9.29,0,0,1,1.89.22A1,1,0,1,0,12.37.31a.27.27,0,0,0-.12,0A10.34,10.34,0,0,0,9.9,0a9.92,9.92,0,0,0,0,19.84h0a9.93,9.93,0,0,0,9.94-9.92A1,1,0,0,0,18.85,8.93Z" transform="translate(0 0)"/></svg>