<?xml version="1.0" encoding="utf-8"?>
<!-- Generator: Adobe Illustrator 23.0.0, SVG Export Plug-In . SVG Version: 6.00 Build 0)  -->
<svg version="1.1" id="Capa_1" xmlns="http://www.w3.org/2000/svg" xmlns:xlink="http://www.w3.org/1999/xlink" x="0px" y="0px"
	 viewBox="0 0 400 225" style="enable-background:new 0 0 400 225;" xml:space="preserve">
<style type="text/css">
	.st0{display:none;fill:#E6E8EB;}
	.st1{display:none;}
	.st2{fill:none;stroke:#000000;stroke-width:4;stroke-linecap:round;stroke-miterlimit:10;}
</style>
<path class="st0" d="M-1702.3-58.5c0-9.6-0.3-19.3,0.1-28.9c0.7-17.7,9.1-25.6,26.3-25.3c15.2,0.2,23,9.1,23.3,26.3
	c0.1,6.2,1.6,12.5-8.9,11.3c-5.9-0.7-8.5-1.7-7.6-7.9c0.3-2.1,0.1-4.4-0.1-6.5c-0.5-4.5-2.7-8-7.5-8c-5.2,0-7.7,3.6-7.7,8.6
	c-0.1,20.2-0.1,40.4,0,60.6c0,5,2.5,8.7,7.7,8.7c5.3,0,7.3-4,7.7-8.8c0.2-2.5,0.4-5,0-7.5c-1.2-7.7,1.5-10.3,9.5-9.8
	c5.8,0.3,7.9,1.7,7.1,7.5c-0.4,3.1,0,6.2-0.1,9.3c-0.5,15.3-8.4,24.1-22.2,24.6c-17.3,0.6-26-6.6-27.1-23.4
	c-0.7-10.2-0.1-20.5-0.1-30.8C-1702.2-58.5-1702.3-58.5-1702.3-58.5z"/>
<path class="st1" d="M-1872.5-59.1c0-15.2,0.3-30.4-0.1-45.6c-0.2-7.1,3.9-6.5,8.3-6.1c4,0.4,9.6-2.6,9.5,5.8
	c-0.3,31.1-0.3,62.1,0,93.2c0.1,8.5-5.7,5.2-9.6,5.6c-4.5,0.5-8.4,0.8-8.2-6.2C-1872.1-28-1872.5-43.5-1872.5-59.1z"/>
<g>
	<g>
		<path d="M-1512.3-65.4c0-14.9,0.4-29.9-0.2-44.8c-0.3-7.4,3.1-7.8,8.9-7.7c5.4,0.1,9.2-0.3,9.1,7.5c-0.5,24.6,0,49.1-0.3,73.7
			c-0.1,6.6,1.1,10,8.5,8.8c3-0.5,6.3,0.4,9.3-0.2c9.5-1.9,9.8,3.6,9.5,10.6c-0.2,4-2,4.5-5.2,4.5c-10.9-0.1-21.8-0.3-32.6,0.1
			c-5.3,0.2-7-1.5-6.8-6.8C-1512.1-34.9-1512.3-50.1-1512.3-65.4z"/>
		<path d="M-1546.3-72.4c0,12.7,0.2,25.5-0.1,38.2c-0.1,4.9,1.4,6.7,6.3,6.3c4-0.3,8.1,0.1,12.1-0.1c5.4-0.3,9.3-0.4,9.2,7.4
			c-0.1,7.2-2.9,8-8.8,7.8c-9.9-0.4-19.9-0.4-29.8,0c-5,0.2-6.3-1.6-6.2-6.4c0.2-30.8,0.3-61.5-0.1-92.3c-0.1-8.3,5.1-5.9,9.3-6
			c4.2-0.2,8.7-1.3,8.3,6C-1546.7-98.6-1546.3-85.5-1546.3-72.4z"/>
		<path d="M-1571.8-21.9c-4.4-28.3-9.4-56.5-13.6-84.8c-1.3-8.8-3.3-14.5-14-10.9c-9.9-3.7-12.2,1.7-13.5,10.7
			c-4,28-8.7,56-13.7,83.9c-1.4,7.8,0.1,9.8,8.3,9.8c10.2,0,7.8-7.1,8.3-12.1c0.7-6.7,3-9.1,10.3-9.1c7.3,0,10.1,2.4,10.1,9.2
			c0,1.9,0.5,3.7,0.7,5.6c1,10.9,9.4,5.5,14.3,5.9C-1567.5-13.4-1571.3-19.3-1571.8-21.9z M-1597.1-49.1c-3-0.3-6.2,0.7-9.3-0.9
			c2-14.1,4-28.1,5.9-42.2c0.4,0,0.9,0,1.3-0.1c1.9,13,3.8,26,5.8,38.9C-1592.8-50-1593.9-48.8-1597.1-49.1z"/>
		<path d="M-1640.5-19.2c1.1-3.6,1.5-7.3,1.7-11.1c0.3-6.2,0.2-12.5-1-18.6c-0.3-1.3-0.7-2.7-1.3-3.9c-1.3-2.7-3.8-3.5-6.5-3.4
			c-3.4,0-6.8,0.4-10.2,0.6c-1.8,0.1-3.5,0-5.3,0c-0.6,0-0.9-0.3-1-1c-0.4-2.8-1-5.6-1.2-8.4c-0.6-8.3,0.4-16.5,2.4-24.6
			c1.1-4.5,2.7-8.8,4.9-12.8c0.4-0.6,0.8-0.9,1.4-0.7c0.7,0.1,1.5,0.2,2.1,0.4c2.8,1,5.6,2.1,8.5,3c1.9,0.6,3.9,1.2,5.9,1.5
			c2.5,0.4,4.6-0.5,6-2.6c0.6-0.9,1.2-1.8,1.7-2.7c2.2-4.3,3.7-8.9,4.9-13.5c1.2-4.4,2.3-8.9,2.3-13.6c0-1.5-0.2-3-0.5-4.5
			c-0.5-2-2.2-3.2-3.9-4.2c-6.5-3.5-13.4-4.8-20.7-4c-2.4,0.3-4.7,1-6.6,2.5c-4,3.1-7.5,6.7-10.6,10.7c-5.1,6.6-8.9,14-11.9,21.8
			c-4.4,11.6-6.8,23.7-7.4,36.1c-0.5,11.8,0.6,23.3,4.2,34.6c2,6.2,4.7,11.9,8.8,17.7c1.4,2.3,3.9,3.9,6.8,5
			c4.3,1.8,8.9,2.4,13.5,2.2c2.4-0.1,4.8-0.5,7.1-1C-1643.4-14.5-1641.5-16.3-1640.5-19.2z"/>
	</g>
	<path d="M-1731.4-12.6c-17.8,1.2-17.8,1.2-22.6-14.3c-2.8-9.2-5.6-18.3-8.7-28.3c-9.2,10.4-6.1,21.9-6,32.5
		c0.1,8.2-1.6,11.4-10.5,10.9c-6.8-0.3-7.4-2.9-7.3-8.4c0.2-29.6,0.4-59.2-0.1-88.7c-0.2-8.1,3.6-7.9,9.4-8.1
		c6.3-0.2,8.9,1.3,8.4,8.1c-0.6,9.9-0.2,19.8,1.8,30.2c4-8.5,8-17,12-25.4c6.3-13.6,6.3-13.6,23.3-12.1
		c-5.3,10.5-10.1,20.9-15.6,30.9c-2.9,5.3-3.3,10-1.4,15.9C-1742.7-50.8-1737.3-32-1731.4-12.6z"/>
	<path d="M-1903.3-73.7c0,12.1,0.2,24.3-0.1,36.4c-0.4,17.6-9,25.8-26.1,25.6c-15.5-0.2-23.7-8.8-23.8-25.8
		c-0.2-24.6,0.3-49.2-0.2-73.8c-0.1-7.2,3.3-7.3,8.4-7c4.7,0.3,9.8-1.7,9.5,6.9c-0.6,22.4-0.2,44.8-0.2,67.2c0,2.2,0.1,4.4,0,6.5
		c-0.2,5.5,1.3,10.6,7.6,10.7c6.4,0.1,7.8-4.9,7.7-10.5c-0.1-23.3,0-46.7,0-70c0-10.7,3.2-13.1,13.9-10.8c4.4,0.9,3.3,3.9,3.3,6.4
		C-1903.2-99.3-1903.3-86.5-1903.3-73.7z"/>
	<path d="M-1844.8-66.9c0-10.6-0.6-21.2,0.1-31.7c0.9-14,9.3-21.4,23-21.6c15.7-0.2,23.6,6.2,25.7,20.9c0.3,2.1,0.5,4.3,0.5,6.5
		c0.2,9-6.5,13.5-14.7,9.8c-3.6-1.6-2-4.8-2.2-7.3c-0.4-6,1.3-14.4-7.5-14.4c-9.4,0-7.8,8.7-7.9,15c-0.1,16.5-0.1,33,0,49.5
		c0,2.8,0.2,5.6,0.9,8.3c0.9,3.4,3.7,5.2,7,5.1c3.3-0.1,6.1-1.9,6.8-5.4c0.6-3,0.6-6.2,0.6-9.3c0.1-11.9,1.1-12.7,12.5-11.3
		c3.1,0.4,4.5,1.3,4.4,4.4c-0.2,5.3,0.1,10.6-0.6,15.8c-1.9,14.7-9.9,21.1-25.6,20.9c-13.7-0.2-22.1-7.5-23.1-21.6
		C-1845.4-44.5-1844.8-55.7-1844.8-66.9z"/>
	<path d="M-1965.8-23.8c-2.6-0.4-3.8-2.4-2.5-5.3c7.7-17.3,2.3-35.7,4.1-50.5c0-15.1,0.3-27.3-0.1-39.4
		c-0.7-20.7-11.6-31.4-31.3-31.5c-20.9-0.1-32.4,10.2-32.9,31.2c-0.6,24.7-0.6,49.4,0,74.1c0.5,21,11.9,31.7,32.7,31.2
		c7.5-0.2,13.5,0.4,19.2,6.7c4.1,4.6,13.3,5.7,16.4,0.5C-1958.4-10.1-1952.7-21.9-1965.8-23.8z M-1996.8-33.2
		c-7.2-0.2-9.5-5.7-9.5-12.4c0.1-24.3,0.1-48.6,0-72.9c0-7.2,2.2-13,10.2-12.8c7.2,0.2,9.5,5.7,9.5,12.4c-0.1,12.5,0,25.1,0,37.6
		c0,11.8-0.1,23.5,0,35.3C-1986.5-38.8-1988.8-33-1996.8-33.2z"/>
	<path d="M-1876.1-48.6c-6.3,1.2-12.5,2.4-18.8,3.7c10.4-39.3,20.7-78.3,30.9-117.3c0.1,0,0.1,0.1,0.2,0.1
		c-2.7,28.3-5.4,56.6-8.1,85.2c5.7-0.4,11.3-0.7,17-1.1c-9.6,38.8-19.2,77.3-28.8,115.8c-0.1,0-0.1-0.1-0.2-0.1
		C-1881.3,8.9-1878.7-19.7-1876.1-48.6z"/>
</g>
<g>
	<g>
		<path d="M-1512.3,142.6c0-14.9,0.4-29.9-0.2-44.8c-0.3-7.4,3.1-7.8,8.9-7.7c5.4,0.1,9.2-0.3,9.1,7.5c-0.5,24.6,0,49.1-0.3,73.7
			c-0.1,6.6,1.1,10,8.5,8.8c3-0.5,6.3,0.4,9.3-0.2c9.5-1.9,9.8,3.6,9.5,10.6c-0.2,4-2,4.5-5.2,4.5c-10.9-0.1-21.8-0.3-32.6,0.1
			c-5.3,0.2-7-1.5-6.8-6.8C-1512.1,173.1-1512.3,157.9-1512.3,142.6z"/>
		<path d="M-1546.3,135.6c0,12.7,0.2,25.5-0.1,38.2c-0.1,4.9,1.4,6.7,6.3,6.3c4-0.3,8.1,0.1,12.1-0.1c5.4-0.3,9.3-0.4,9.2,7.4
			c-0.1,7.2-2.9,8-8.8,7.8c-9.9-0.4-19.9-0.4-29.8,0c-5,0.2-6.3-1.6-6.2-6.4c0.2-30.8,0.3-61.5-0.1-92.3c-0.1-8.3,5.1-5.9,9.3-6
			c4.2-0.2,8.7-1.3,8.3,6C-1546.7,109.4-1546.3,122.5-1546.3,135.6z"/>
		<path d="M-1571.8,186.1c-4.4-28.3-9.4-56.5-13.6-84.8c-1.3-8.8-3.3-14.5-14-10.9c-9.9-3.7-12.2,1.7-13.5,10.7
			c-4,28-8.7,56-13.7,83.9c-1.4,7.8,0.1,9.8,8.3,9.8c10.2,0,7.8-7.1,8.3-12.1c0.7-6.7,3-9.1,10.3-9.1c7.3,0,10.1,2.4,10.1,9.2
			c0,1.9,0.5,3.7,0.7,5.6c1,10.9,9.4,5.5,14.3,5.9C-1567.5,194.6-1571.3,188.7-1571.8,186.1z M-1597.1,158.9c-3-0.3-6.2,0.7-9.3-0.9
			c2-14.1,4-28.1,5.9-42.2c0.4,0,0.9,0,1.3-0.1c1.9,13,3.8,26,5.8,38.9C-1592.8,158-1593.9,159.2-1597.1,158.9z"/>
		<path d="M-1651.9,195.1c-4.3,0-8.2-0.7-11.8-2.1c-3.1-1.2-5.2-2.8-6.3-4.6c-3.8-5.4-6.7-11.1-8.7-17.5
			c-3.3-10.5-4.7-21.7-4.1-34.2c0.6-12.4,3-24.5,7.3-35.8c3.1-8.2,6.9-15.2,11.7-21.5c3-3.9,6.5-7.5,10.4-10.5
			c1.6-1.3,3.7-2.1,6.1-2.3c1.4-0.2,2.7-0.2,4.1-0.2c5.6,0,11,1.4,16,4.1c1.5,0.8,3,1.8,3.4,3.5c0.3,1.4,0.5,2.9,0.5,4.3
			c0,4.5-1.1,8.9-2.2,13.3c-1,3.8-2.4,8.7-4.8,13.3c-0.4,0.9-1,1.7-1.6,2.6c-1,1.5-2.4,2.2-4.1,2.2c-0.3,0-0.6,0-1-0.1
			c-1.7-0.3-3.4-0.7-5.7-1.4c-1.7-0.5-3.4-1.2-5-1.8c-1.1-0.4-2.3-0.8-3.4-1.2c-0.6-0.2-1.3-0.3-1.9-0.4l-0.4-0.1
			c-0.2,0-0.3,0-0.5,0c-0.8,0-1.5,0.4-2,1.3c-2.1,3.8-3.8,8.1-5,13.1c-2.2,8.7-3,16.9-2.5,24.9c0.1,1.9,0.5,3.8,0.8,5.6
			c0.2,1,0.3,1.9,0.5,2.9c0.2,1.1,0.9,1.8,2,1.9l0.7,0c0.9,0,1.9,0,2.8,0c0.6,0,1.2,0,1.9,0c1.3-0.1,2.7-0.2,4-0.3
			c2-0.1,4.1-0.3,6.2-0.3c2.9,0,4.7,0.9,5.6,2.9c0.5,1.1,0.9,2.3,1.2,3.7c1.1,5.3,1.4,11,1,18.4c-0.2,3-0.5,7-1.7,10.8
			c-0.8,2.6-2.5,4.2-5.1,4.7c-1.9,0.4-4.4,0.9-6.9,0.9C-1650.9,195.1-1651.4,195.1-1651.9,195.1
			C-1651.9,195.1-1651.9,195.1-1651.9,195.1z"/>
	</g>
	<path d="M-1731.4,195.4c-17.8,1.2-17.8,1.2-22.6-14.3c-2.8-9.2-5.6-18.3-8.7-28.3c-9.2,10.4-6.1,21.9-6,32.5
		c0.1,8.2-1.6,11.4-10.5,10.9c-6.8-0.3-7.4-2.9-7.3-8.4c0.2-29.6,0.4-59.2-0.1-88.7c-0.2-8.1,3.6-7.9,9.4-8.1
		c6.3-0.2,8.9,1.3,8.4,8.1c-0.6,9.9-0.2,19.8,1.8,30.2c4-8.5,8-17,12-25.4c6.3-13.6,6.3-13.6,23.3-12.1
		c-5.3,10.5-10.1,20.9-15.6,30.9c-2.9,5.3-3.3,10-1.4,15.9C-1742.7,157.2-1737.3,176-1731.4,195.4z"/>
	<path d="M-1903.3,134.3c0,12.1,0.2,24.3-0.1,36.4c-0.4,17.6-9,25.8-26.1,25.6c-15.5-0.2-23.7-8.8-23.8-25.8
		c-0.2-24.6,0.3-49.2-0.2-73.8c-0.1-7.2,3.3-7.3,8.4-7c4.7,0.3,9.8-1.7,9.5,6.9c-0.6,22.4-0.2,44.8-0.2,67.2c0,2.2,0.1,4.4,0,6.5
		c-0.2,5.5,1.3,10.6,7.6,10.7c6.4,0.1,7.8-4.9,7.7-10.5c-0.1-23.3,0-46.7,0-70c0-10.7,3.2-13.1,13.9-10.8c4.4,0.9,3.3,3.9,3.3,6.4
		C-1903.2,108.7-1903.3,121.5-1903.3,134.3z"/>
	<path d="M-1844.8,141.1c0-10.6-0.6-21.2,0.1-31.7c0.9-14,9.3-21.4,23-21.6c15.7-0.2,23.6,6.2,25.7,20.9c0.3,2.1,0.5,4.3,0.5,6.5
		c0.2,9-6.5,13.5-14.7,9.8c-3.6-1.6-2-4.8-2.2-7.3c-0.4-6,1.3-14.4-7.5-14.4c-9.4,0-7.8,8.7-7.9,15c-0.1,16.5-0.1,33,0,49.5
		c0,2.8,0.2,5.6,0.9,8.3c0.9,3.4,3.7,5.2,7,5.1c3.3-0.1,6.1-1.9,6.8-5.4c0.6-3,0.6-6.2,0.6-9.3c0.1-11.9,1.1-12.7,12.5-11.3
		c3.1,0.4,4.5,1.3,4.4,4.4c-0.2,5.3,0.1,10.6-0.6,15.8c-1.9,14.7-9.9,21.1-25.6,20.9c-13.7-0.2-22.1-7.5-23.1-21.6
		C-1845.4,163.5-1844.8,152.3-1844.8,141.1z"/>
	<path d="M-1965.8,184.2c-2.6-0.4-3.8-2.4-2.5-5.3c7.7-17.3,2.3-35.7,4.1-50.5c0-15.1,0.3-27.3-0.1-39.4
		c-0.7-20.7-11.6-31.4-31.3-31.5c-20.9-0.1-32.4,10.2-32.9,31.2c-0.6,24.7-0.6,49.4,0,74.1c0.5,21,11.9,31.7,32.7,31.2
		c7.5-0.2,13.5,0.4,19.2,6.7c4.1,4.6,13.3,5.7,16.4,0.5C-1958.4,197.9-1952.7,186.1-1965.8,184.2z M-1996.8,174.8
		c-7.2-0.2-9.5-5.7-9.5-12.4c0.1-24.3,0.1-48.6,0-72.9c0-7.2,2.2-13,10.2-12.8c7.2,0.2,9.5,5.7,9.5,12.4c-0.1,12.5,0,25.1,0,37.6
		c0,11.8-0.1,23.5,0,35.3C-1986.5,169.2-1988.8,175-1996.8,174.8z"/>
	<path d="M-1874.4,150.1c-6.9,1-13.6,2-20.6,3c11.4-32,22.7-63.8,33.9-95.6c0.1,0,0.1,0.1,0.2,0.1c-3,23.1-6,46.1-9,69.4
		c6.2-0.3,12.4-0.6,18.7-0.9c-10.6,31.6-21.1,63-31.6,94.4c-0.1,0-0.1-0.1-0.2-0.1C-1880.1,197-1877.3,173.7-1874.4,150.1z"/>
</g>
<line class="st2" x1="-2030.2" y1="232.5" x2="-1466.2" y2="232.5"/>
<g>
	<path d="M-2019.4,258.4v9.3h-3.2v-9.3l-7-13.6h3.6l5,10.4l5-10.4h3.6L-2019.4,258.4z"/>
	<path d="M-1996.2,267.1c-1-0.6-1.8-1.4-2.3-2.4s-0.8-2.4-0.8-3.9v-2.7c0-1.5,0.3-2.8,0.8-3.8c0.5-1.1,1.3-1.9,2.3-2.4
		s2.2-0.8,3.7-0.8c1.4,0,2.6,0.3,3.7,0.8s1.8,1.4,2.3,2.4c0.5,1.1,0.8,2.3,0.8,3.8v2.7c0,1.5-0.3,2.8-0.8,3.8
		c-0.5,1.1-1.3,1.9-2.3,2.4s-2.2,0.8-3.7,0.8C-1993.9,268-1995.1,267.7-1996.2,267.1z M-1989.9,263.9c0.6-0.7,0.9-1.7,0.9-3v-2.7
		c0-1.3-0.3-2.3-0.9-3c-0.6-0.7-1.5-1-2.6-1c-1.1,0-2,0.3-2.6,1c-0.6,0.7-0.9,1.7-0.9,3v2.7c0,1.3,0.3,2.3,0.9,3
		c0.6,0.7,1.5,1.1,2.6,1.1C-1991.4,264.9-1990.5,264.6-1989.9,263.9z"/>
	<path d="M-1965.4,261.3c0,1.1,0.3,2,0.9,2.7c0.6,0.6,1.4,0.9,2.5,0.9c1.1,0,1.9-0.3,2.5-0.8s0.9-1.4,0.9-2.4l0.2,3.4
		c-0.3,0.8-0.9,1.5-1.6,2s-1.7,0.8-2.8,0.8c-1.8,0-3.2-0.6-4.2-1.7c-1-1.2-1.5-2.8-1.5-4.9v-10h3.2V261.3z M-1958.7,251.3h3.2v16.4
		h-3.2V251.3z"/>
	<path d="M-1937.7,251.3h3.2v16.4h-3.2V251.3z M-1929.7,254.4c-0.4-0.2-0.9-0.3-1.5-0.3c-1,0-1.8,0.3-2.4,0.8
		c-0.6,0.6-0.8,1.3-0.8,2.3l-0.3-3.2c0.5-1,1.2-1.7,2-2.3c0.8-0.5,1.7-0.8,2.7-0.8c0.7,0,1.4,0.1,2,0.3s1.1,0.5,1.6,1l-2.1,2.8
		C-1928.9,254.9-1929.3,254.6-1929.7,254.4z"/>
	<path d="M-1889.2,251.3h3.2v16.4h-3.2V251.3z M-1879.3,257.8c0-1.2-0.3-2.1-0.9-2.7c-0.6-0.6-1.4-0.9-2.5-0.9
		c-1.1,0-1.9,0.3-2.4,0.8c-0.6,0.6-0.9,1.3-0.9,2.4l-0.3-3.2c0.5-1,1.2-1.8,2-2.3c0.8-0.5,1.7-0.8,2.7-0.8c1.8,0,3.2,0.6,4.1,1.7
		c1,1.2,1.5,2.8,1.5,4.9v10h-3.2V257.8z"/>
	<path d="M-1853.8,268c0,0-0.5-0.3-1.6-0.9c-1.1-0.6-1.9-1.4-2.5-2.5c-0.6-1.1-0.8-2.4-0.8-4v-1.8c0-1.6,0.3-3,0.8-4.2
		c0.5-1.1,1.3-2,2.4-2.6c1-0.6,2.3-0.9,3.7-0.9c1.4,0,2.5,0.3,3.5,1c1,0.7,1.7,1.7,2.2,3c0.5,1.3,0.8,2.9,0.8,4.7v1.1h-11.1v-2.6h8
		c-0.1-1.3-0.4-2.4-1-3.1c-0.6-0.7-1.4-1.1-2.4-1.1c-1.2,0-2.2,0.4-2.8,1.2c-0.7,0.8-1,1.9-1,3.4v2.1c0,1.4,0.4,2.4,1.1,3.1
		c0.7,0.7,1.7,1.1,3.1,1.1c0.7,0,1.3-0.1,1.9-0.4c0.6-0.3,1.2-0.6,1.7-1.1l2.1,2.1c-0.8,0.8-1.7,1.4-2.7,1.8s-2,0.6-3.1,0.6
		C-1853,268-1853.8,268-1853.8,268z"/>
	<path d="M-1823.5,268c0,0-0.5-0.3-1.6-0.9c-1.1-0.6-1.9-1.4-2.5-2.5c-0.6-1.1-0.8-2.4-0.8-4v-1.8c0-1.6,0.3-3,0.8-4.2
		c0.5-1.1,1.3-2,2.4-2.6c1-0.6,2.3-0.9,3.7-0.9c1.4,0,2.5,0.3,3.5,1c1,0.7,1.7,1.7,2.2,3c0.5,1.3,0.8,2.9,0.8,4.7v1.1h-11.1v-2.6h8
		c-0.1-1.3-0.4-2.4-1-3.1c-0.6-0.7-1.4-1.1-2.4-1.1c-1.2,0-2.2,0.4-2.8,1.2c-0.7,0.8-1,1.9-1,3.4v2.1c0,1.4,0.4,2.4,1.1,3.1
		c0.7,0.7,1.7,1.1,3.1,1.1c0.7,0,1.3-0.1,1.9-0.4c0.6-0.3,1.2-0.6,1.7-1.1l2.1,2.1c-0.8,0.8-1.7,1.4-2.7,1.8s-2,0.6-3.1,0.6
		C-1822.7,268-1823.5,268-1823.5,268z"/>
	<path d="M-1795.5,267.2c-0.8-0.5-1.5-1.3-1.9-2.3c-0.4-1-0.7-2.2-0.7-3.6v-3.6c0-1.4,0.2-2.6,0.6-3.6s1.1-1.8,1.9-2.3
		c0.8-0.5,1.8-0.8,3-0.8c1,0,1.9,0.3,2.7,0.8s1.5,1.2,2,2.1l-0.3,3.4c0-0.7-0.1-1.3-0.4-1.8c-0.3-0.5-0.6-0.9-1.1-1.1
		c-0.5-0.3-1.1-0.4-1.7-0.4c-1.1,0-1.9,0.3-2.5,1c-0.6,0.7-0.9,1.6-0.9,2.8v3.6c0,1.2,0.3,2.1,0.9,2.8c0.6,0.6,1.4,1,2.5,1
		c0.7,0,1.3-0.1,1.7-0.4s0.8-0.7,1.1-1.2s0.4-1.1,0.4-1.8l0.2,3.5c-0.3,0.8-0.9,1.5-1.6,2c-0.7,0.5-1.7,0.8-2.7,0.8
		C-1793.6,268-1794.6,267.8-1795.5,267.2z M-1788.3,244.8h3.2v23h-3.2V244.8z"/>
	<path d="M-1762.8,268c0,0-0.4-0.1-1.3-0.3c-0.8-0.2-1.6-0.5-2.4-0.9c-0.7-0.4-1.4-0.9-2-1.4l1.9-2.4c0.9,0.7,1.8,1.2,2.6,1.5
		c0.9,0.3,1.7,0.5,2.6,0.5c1.3,0,2.2-0.2,2.9-0.6c0.6-0.4,1-1,1-1.8c0-0.5-0.2-0.9-0.5-1.2c-0.3-0.3-0.8-0.4-1.3-0.5
		c-0.5-0.1-1.2-0.2-2.2-0.2c-0.1,0-0.2,0-0.3,0c-0.1,0-0.2,0-0.3,0c0,0-0.1,0-0.1,0s-0.1,0-0.1,0c-1.1-0.1-2-0.2-2.7-0.5
		s-1.4-0.7-1.8-1.3c-0.5-0.6-0.7-1.5-0.7-2.7s0.2-2.1,0.7-2.9c0.5-0.8,1.2-1.3,2.1-1.7s2.1-0.6,3.5-0.6c0.9,0,1.7,0.1,2.4,0.2
		c0.8,0.2,1.5,0.4,2.2,0.7c0.7,0.3,1.4,0.7,2,1.2l-1.9,2.4c-0.8-0.5-1.6-0.9-2.4-1.2c-0.8-0.3-1.6-0.4-2.3-0.4
		c-1.1,0-1.9,0.2-2.5,0.6s-0.8,0.9-0.8,1.7c0,0.4,0.2,0.8,0.5,1c0.3,0.2,0.7,0.4,1.2,0.4c0.5,0.1,1.1,0.1,2,0.2c0.1,0,0.1,0,0.2,0
		s0.1,0,0.2,0c0,0,0.1,0,0.1,0c0,0,0.1,0,0.1,0c1.1,0.1,2.1,0.2,2.9,0.5c0.8,0.2,1.5,0.7,2,1.4c0.5,0.7,0.8,1.7,0.8,3
		c0,1.2-0.3,2.2-0.8,2.9s-1.3,1.4-2.3,1.7c-1,0.4-2.3,0.6-3.8,0.6C-1762.4,268-1762.8,268-1762.8,268z"/>
	<path d="M-1713.2,267.1c-1-0.6-1.8-1.4-2.3-2.4s-0.8-2.4-0.8-3.9v-2.7c0-1.5,0.3-2.8,0.8-3.8c0.5-1.1,1.3-1.9,2.3-2.4
		s2.2-0.8,3.7-0.8s2.6,0.3,3.7,0.8c1,0.6,1.8,1.4,2.3,2.4c0.5,1.1,0.8,2.3,0.8,3.8v2.7c0,1.5-0.3,2.8-0.8,3.8
		c-0.5,1.1-1.3,1.9-2.3,2.4c-1,0.6-2.2,0.8-3.7,0.8S-1712.2,267.7-1713.2,267.1z M-1706.9,263.9c0.6-0.7,0.9-1.7,0.9-3v-2.7
		c0-1.3-0.3-2.3-0.9-3c-0.6-0.7-1.5-1-2.6-1s-2,0.3-2.6,1c-0.6,0.7-0.9,1.7-0.9,3v2.7c0,1.3,0.3,2.3,0.9,3c0.6,0.7,1.5,1.1,2.6,1.1
		S-1707.5,264.6-1706.9,263.9z"/>
	<path d="M-1682.4,261.3c0,1.1,0.3,2,0.9,2.7c0.6,0.6,1.4,0.9,2.5,0.9c1.1,0,1.9-0.3,2.5-0.8c0.6-0.6,0.9-1.4,0.9-2.4l0.2,3.4
		c-0.3,0.8-0.9,1.5-1.6,2s-1.7,0.8-2.8,0.8c-1.8,0-3.2-0.6-4.2-1.7c-1-1.2-1.5-2.8-1.5-4.9v-10h3.2V261.3z M-1675.7,251.3h3.2v16.4
		h-3.2V251.3z"/>
	<path d="M-1654.7,251.3h3.2v16.4h-3.2V251.3z M-1646.7,254.4c-0.4-0.2-0.9-0.3-1.5-0.3c-1,0-1.8,0.3-2.4,0.8
		c-0.6,0.6-0.8,1.3-0.8,2.3l-0.3-3.2c0.5-1,1.2-1.7,2-2.3s1.7-0.8,2.7-0.8c0.7,0,1.4,0.1,2,0.3c0.6,0.2,1.1,0.5,1.6,1l-2.1,2.8
		C-1645.9,254.9-1646.3,254.6-1646.7,254.4z"/>
	<path d="M-1606.3,251.3h3.2v16.4h-3.2V251.3z M-1596.3,257.8c0-1.2-0.3-2.1-0.9-2.7c-0.6-0.6-1.4-0.9-2.5-0.9
		c-1.1,0-1.9,0.3-2.4,0.8s-0.9,1.3-0.9,2.4l-0.3-3.2c0.5-1,1.2-1.8,2-2.3c0.8-0.5,1.7-0.8,2.7-0.8c1.8,0,3.2,0.6,4.1,1.7
		c1,1.2,1.5,2.8,1.5,4.9v10h-3.2V257.8z"/>
	<path d="M-1570.8,268c0,0-0.5-0.3-1.6-0.9c-1.1-0.6-1.9-1.4-2.5-2.5c-0.6-1.1-0.8-2.4-0.8-4v-1.8c0-1.6,0.3-3,0.8-4.2
		s1.3-2,2.4-2.6c1-0.6,2.3-0.9,3.7-0.9c1.4,0,2.5,0.3,3.5,1c1,0.7,1.7,1.7,2.2,3c0.5,1.3,0.8,2.9,0.8,4.7v1.1h-11.1v-2.6h8
		c-0.1-1.3-0.4-2.4-1-3.1c-0.6-0.7-1.4-1.1-2.4-1.1c-1.2,0-2.2,0.4-2.8,1.2c-0.7,0.8-1,1.9-1,3.4v2.1c0,1.4,0.4,2.4,1.1,3.1
		c0.7,0.7,1.7,1.1,3.1,1.1c0.7,0,1.3-0.1,1.9-0.4s1.2-0.6,1.7-1.1l2.1,2.1c-0.8,0.8-1.7,1.4-2.7,1.8s-2,0.6-3.1,0.6
		C-1570,268-1570.8,268-1570.8,268z"/>
	<path d="M-1540.5,268c0,0-0.5-0.3-1.6-0.9c-1.1-0.6-1.9-1.4-2.5-2.5c-0.6-1.1-0.8-2.4-0.8-4v-1.8c0-1.6,0.3-3,0.8-4.2
		s1.3-2,2.4-2.6c1-0.6,2.3-0.9,3.7-0.9c1.4,0,2.5,0.3,3.5,1c1,0.7,1.7,1.7,2.2,3c0.5,1.3,0.8,2.9,0.8,4.7v1.1h-11.1v-2.6h8
		c-0.1-1.3-0.4-2.4-1-3.1c-0.6-0.7-1.4-1.1-2.4-1.1c-1.2,0-2.2,0.4-2.8,1.2c-0.7,0.8-1,1.9-1,3.4v2.1c0,1.4,0.4,2.4,1.1,3.1
		c0.7,0.7,1.7,1.1,3.1,1.1c0.7,0,1.3-0.1,1.9-0.4s1.2-0.6,1.7-1.1l2.1,2.1c-0.8,0.8-1.7,1.4-2.7,1.8s-2,0.6-3.1,0.6
		C-1539.7,268-1540.5,268-1540.5,268z"/>
	<path d="M-1512.5,267.2c-0.8-0.5-1.5-1.3-1.9-2.3s-0.7-2.2-0.7-3.6v-3.6c0-1.4,0.2-2.6,0.6-3.6c0.4-1,1.1-1.8,1.9-2.3
		s1.8-0.8,3-0.8c1,0,1.9,0.3,2.7,0.8c0.8,0.5,1.5,1.2,2,2.1l-0.3,3.4c0-0.7-0.1-1.3-0.4-1.8c-0.3-0.5-0.6-0.9-1.1-1.1
		c-0.5-0.3-1.1-0.4-1.7-0.4c-1.1,0-1.9,0.3-2.5,1s-0.9,1.6-0.9,2.8v3.6c0,1.2,0.3,2.1,0.9,2.8s1.4,1,2.5,1c0.7,0,1.3-0.1,1.7-0.4
		s0.8-0.7,1.1-1.2s0.4-1.1,0.4-1.8l0.2,3.5c-0.3,0.8-0.9,1.5-1.6,2s-1.7,0.8-2.7,0.8C-1510.6,268-1511.6,267.8-1512.5,267.2z
		 M-1505.3,244.8h3.2v23h-3.2V244.8z"/>
	<path d="M-1479.9,268c0,0-0.4-0.1-1.3-0.3c-0.8-0.2-1.6-0.5-2.4-0.9c-0.7-0.4-1.4-0.9-2-1.4l1.9-2.4c0.9,0.7,1.8,1.2,2.6,1.5
		c0.9,0.3,1.7,0.5,2.6,0.5c1.3,0,2.2-0.2,2.9-0.6c0.6-0.4,1-1,1-1.8c0-0.5-0.2-0.9-0.5-1.2c-0.3-0.3-0.8-0.4-1.3-0.5
		c-0.5-0.1-1.2-0.2-2.2-0.2c-0.1,0-0.2,0-0.3,0c-0.1,0-0.2,0-0.3,0c0,0-0.1,0-0.1,0c0,0-0.1,0-0.1,0c-1.1-0.1-2-0.2-2.7-0.5
		s-1.4-0.7-1.8-1.3c-0.5-0.6-0.7-1.5-0.7-2.7s0.2-2.1,0.7-2.9c0.5-0.8,1.2-1.3,2.1-1.7s2.1-0.6,3.5-0.6c0.9,0,1.7,0.1,2.4,0.2
		s1.5,0.4,2.2,0.7c0.7,0.3,1.4,0.7,2,1.2l-1.9,2.4c-0.8-0.5-1.6-0.9-2.4-1.2s-1.6-0.4-2.3-0.4c-1.1,0-1.9,0.2-2.5,0.6
		c-0.5,0.4-0.8,0.9-0.8,1.7c0,0.4,0.2,0.8,0.5,1c0.3,0.2,0.7,0.4,1.2,0.4c0.5,0.1,1.1,0.1,2,0.2c0.1,0,0.1,0,0.2,0
		c0.1,0,0.1,0,0.2,0c0,0,0.1,0,0.1,0c0,0,0.1,0,0.1,0c1.1,0.1,2.1,0.2,2.9,0.5c0.8,0.2,1.5,0.7,2,1.4c0.5,0.7,0.8,1.7,0.8,3
		c0,1.2-0.3,2.2-0.8,2.9s-1.3,1.4-2.3,1.7c-1,0.4-2.3,0.6-3.8,0.6C-1479.4,268-1479.9,268-1479.9,268z"/>
</g>
<g>
	<g>
		<path d="M-1512,398.6c0-14.9,0.4-29.9-0.2-44.8c-0.3-7.4,3.1-7.8,8.9-7.7c5.4,0.1,9.2-0.3,9.1,7.5c-0.5,24.6,0,49.1-0.3,73.7
			c-0.1,6.6,1.1,10,8.5,8.8c3-0.5,6.3,0.4,9.3-0.2c9.5-1.9,9.8,3.6,9.5,10.6c-0.2,4-2,4.5-5.2,4.5c-10.9-0.1-21.8-0.3-32.6,0.1
			c-5.3,0.2-7-1.5-6.8-6.8C-1511.8,429.1-1512,413.9-1512,398.6z"/>
		<path d="M-1546,391.6c0,12.7,0.2,25.5-0.1,38.2c-0.1,4.9,1.4,6.7,6.3,6.3c4-0.3,8.1,0.1,12.1-0.1c5.4-0.3,9.3-0.4,9.2,7.4
			c-0.1,7.2-2.9,8-8.8,7.8c-9.9-0.4-19.9-0.4-29.8,0c-5,0.2-6.3-1.6-6.2-6.4c0.2-30.8,0.3-61.5-0.1-92.3c-0.1-8.3,5.1-5.9,9.3-6
			c4.2-0.2,8.7-1.3,8.3,6C-1546.5,365.4-1546,378.5-1546,391.6z"/>
		<path d="M-1571.5,442.1c-4.4-28.3-9.4-56.5-13.6-84.8c-1.3-8.8-3.3-14.5-14-10.9c-9.9-3.7-12.2,1.7-13.5,10.7
			c-4,28-8.7,56-13.7,83.9c-1.4,7.8,0.1,9.8,8.3,9.8c10.2,0,7.8-7.1,8.3-12.1c0.7-6.7,3-9.1,10.3-9.1c7.3,0,10.1,2.4,10.1,9.2
			c0,1.9,0.5,3.7,0.7,5.6c1,10.9,9.4,5.5,14.3,5.9C-1567.3,450.6-1571.1,444.7-1571.5,442.1z M-1596.9,414.9c-3-0.3-6.2,0.7-9.3-0.9
			c2-14.1,4-28.1,5.9-42.2c0.4,0,0.9,0,1.3-0.1c1.9,13,3.8,26,5.8,38.9C-1592.5,414-1593.6,415.2-1596.9,414.9z"/>
		<path d="M-1651.6,451.1c-4.3,0-8.2-0.7-11.8-2.1c-3.1-1.2-5.2-2.8-6.3-4.6c-3.8-5.4-6.7-11.1-8.7-17.5
			c-3.3-10.5-4.7-21.7-4.1-34.2c0.6-12.4,3-24.5,7.3-35.8c3.1-8.2,6.9-15.2,11.7-21.5c3-3.9,6.5-7.5,10.4-10.5
			c1.6-1.3,3.7-2.1,6.1-2.3c1.4-0.2,2.7-0.2,4.1-0.2c5.6,0,11,1.4,16,4.1c1.5,0.8,3,1.8,3.4,3.5c0.3,1.4,0.5,2.9,0.5,4.3
			c0,4.5-1.1,8.9-2.2,13.3c-1,3.8-2.4,8.7-4.8,13.3c-0.4,0.9-1,1.7-1.6,2.6c-1,1.5-2.4,2.2-4.1,2.2c-0.3,0-0.6,0-1-0.1
			c-1.7-0.3-3.4-0.7-5.7-1.4c-1.7-0.5-3.4-1.2-5-1.8c-1.1-0.4-2.3-0.8-3.4-1.2c-0.6-0.2-1.3-0.3-1.9-0.4l-0.4-0.1
			c-0.2,0-0.3,0-0.5,0c-0.8,0-1.5,0.4-2,1.3c-2.1,3.8-3.8,8.1-5,13.1c-2.2,8.7-3,16.9-2.5,24.9c0.1,1.9,0.5,3.8,0.8,5.6
			c0.2,1,0.3,1.9,0.5,2.9c0.2,1.1,0.9,1.8,2,1.9l0.7,0c0.9,0,1.9,0,2.8,0c0.6,0,1.2,0,1.9,0c1.3-0.1,2.7-0.2,4-0.3
			c2-0.1,4.1-0.3,6.2-0.3c2.9,0,4.7,0.9,5.6,2.9c0.5,1.1,0.9,2.3,1.2,3.7c1.1,5.3,1.4,11,1,18.4c-0.2,3-0.5,7-1.7,10.8
			c-0.8,2.6-2.5,4.2-5.1,4.7c-1.9,0.4-4.4,0.9-6.9,0.9C-1650.7,451.1-1651.2,451.1-1651.6,451.1
			C-1651.6,451.1-1651.6,451.1-1651.6,451.1z"/>
	</g>
	<path d="M-1731.2,451.4c-17.8,1.2-17.8,1.2-22.6-14.3c-2.8-9.2-5.6-18.3-8.7-28.3c-9.2,10.4-6.1,21.9-6,32.5
		c0.1,8.2-1.6,11.4-10.5,10.9c-6.8-0.3-7.4-2.9-7.3-8.4c0.2-29.6,0.4-59.2-0.1-88.7c-0.2-8.1,3.6-7.9,9.4-8.1
		c6.3-0.2,8.9,1.3,8.4,8.1c-0.6,9.9-0.2,19.8,1.8,30.2c4-8.5,8-17,12-25.4c6.3-13.6,6.3-13.6,23.3-12.1
		c-5.3,10.5-10.1,20.9-15.6,30.9c-2.9,5.3-3.3,10-1.4,15.9C-1742.5,413.2-1737.1,432-1731.2,451.4z"/>
	<path d="M-1903.1,390.3c0,12.1,0.2,24.3-0.1,36.4c-0.4,17.6-9,25.8-26.1,25.6c-15.5-0.2-23.7-8.8-23.8-25.8
		c-0.2-24.6,0.3-49.2-0.2-73.8c-0.1-7.2,3.3-7.3,8.4-7c4.7,0.3,9.8-1.7,9.5,6.9c-0.6,22.4-0.2,44.8-0.2,67.2c0,2.2,0.1,4.4,0,6.5
		c-0.2,5.5,1.3,10.6,7.6,10.7c6.4,0.1,7.8-4.9,7.7-10.5c-0.1-23.3,0-46.7,0-70c0-10.7,3.2-13.1,13.9-10.8c4.4,0.9,3.3,3.9,3.3,6.4
		C-1903,364.7-1903.1,377.5-1903.1,390.3z"/>
	<path d="M-1844.6,397.1c0-10.6-0.6-21.2,0.1-31.7c0.9-14,9.3-21.4,23-21.6c15.7-0.2,23.6,6.2,25.7,20.9c0.3,2.1,0.5,4.3,0.5,6.5
		c0.2,9-6.5,13.5-14.7,9.8c-3.6-1.6-2-4.8-2.2-7.3c-0.4-6,1.3-14.4-7.5-14.4c-9.4,0-7.8,8.7-7.9,15c-0.1,16.5-0.1,33,0,49.5
		c0,2.8,0.2,5.6,0.9,8.3c0.9,3.4,3.7,5.2,7,5.1c3.3-0.1,6.1-1.9,6.8-5.4c0.6-3,0.6-6.2,0.6-9.3c0.1-11.9,1.1-12.7,12.5-11.3
		c3.1,0.4,4.5,1.3,4.4,4.4c-0.2,5.3,0.1,10.6-0.6,15.8c-1.9,14.7-9.9,21.1-25.6,20.9c-13.7-0.2-22.1-7.5-23.1-21.6
		C-1845.2,419.5-1844.6,408.3-1844.6,397.1z"/>
	<path d="M-1965.6,440.2c-2.6-0.4-3.8-2.4-2.5-5.3c7.7-17.3,2.3-35.7,4.1-50.5c0-15.1,0.3-27.3-0.1-39.4
		c-0.7-20.7-11.6-31.4-31.3-31.5c-20.9-0.1-32.4,10.2-32.9,31.2c-0.6,24.7-0.6,49.4,0,74.1c0.5,21,11.9,31.7,32.7,31.2
		c7.5-0.2,13.5,0.4,19.2,6.7c4.1,4.6,13.3,5.7,16.4,0.5C-1958.1,453.9-1952.5,442.1-1965.6,440.2z M-1996.5,430.8
		c-7.2-0.2-9.5-5.7-9.5-12.4c0.1-24.3,0.1-48.6,0-72.9c0-7.2,2.2-13,10.2-12.8c7.2,0.2,9.5,5.7,9.5,12.4c-0.1,12.5,0,25.1,0,37.6
		c0,11.8-0.1,23.5,0,35.3C-1986.3,425.2-1988.5,431-1996.5,430.8z"/>
	<path d="M-1874.2,406.1c-6.9,1-13.6,2-20.6,3c11.4-32,22.7-63.8,33.9-95.6c0.1,0,0.1,0.1,0.2,0.1c-3,23.1-6,46.1-9,69.4
		c6.2-0.3,12.4-0.6,18.7-0.9c-10.6,31.6-21.1,63-31.6,94.4c-0.1,0-0.1-0.1-0.2-0.1C-1879.9,453-1877,429.7-1874.2,406.1z"/>
</g>
<path d="M-1466,490.5h-564c-1.1,0-2-0.9-2-2s0.9-2,2-2h564c1.1,0,2,0.9,2,2S-1464.9,490.5-1466,490.5z"/>
<g>
	<path d="M-2019.2,514.4v9.3h-3.2v-9.3l-7-13.6h3.6l5,10.4l5-10.4h3.6L-2019.2,514.4z"/>
	<path d="M-1995.9,523.1c-1-0.6-1.8-1.4-2.3-2.4s-0.8-2.4-0.8-3.9v-2.7c0-1.5,0.3-2.8,0.8-3.8c0.5-1.1,1.3-1.9,2.3-2.4
		s2.2-0.8,3.7-0.8c1.4,0,2.6,0.3,3.7,0.8s1.8,1.4,2.3,2.4c0.5,1.1,0.8,2.3,0.8,3.8v2.7c0,1.5-0.3,2.8-0.8,3.8
		c-0.5,1.1-1.3,1.9-2.3,2.4s-2.2,0.8-3.7,0.8C-1993.7,524-1994.9,523.7-1995.9,523.1z M-1989.7,519.9c0.6-0.7,0.9-1.7,0.9-3v-2.7
		c0-1.3-0.3-2.3-0.9-3c-0.6-0.7-1.5-1-2.6-1c-1.1,0-2,0.3-2.6,1c-0.6,0.7-0.9,1.7-0.9,3v2.7c0,1.3,0.3,2.3,0.9,3
		c0.6,0.7,1.5,1.1,2.6,1.1C-1991.2,520.9-1990.3,520.6-1989.7,519.9z"/>
	<path d="M-1965.2,517.3c0,1.1,0.3,2,0.9,2.7c0.6,0.6,1.4,0.9,2.5,0.9c1.1,0,1.9-0.3,2.5-0.8s0.9-1.4,0.9-2.4l0.2,3.4
		c-0.3,0.8-0.9,1.5-1.6,2s-1.7,0.8-2.8,0.8c-1.8,0-3.2-0.6-4.2-1.7c-1-1.2-1.5-2.8-1.5-4.9v-10h3.2V517.3z M-1958.5,507.3h3.2v16.4
		h-3.2V507.3z"/>
	<path d="M-1937.4,507.3h3.2v16.4h-3.2V507.3z M-1929.5,510.4c-0.4-0.2-0.9-0.3-1.5-0.3c-1,0-1.8,0.3-2.4,0.8
		c-0.6,0.6-0.8,1.3-0.8,2.3l-0.3-3.2c0.5-1,1.2-1.7,2-2.3c0.8-0.5,1.7-0.8,2.7-0.8c0.7,0,1.4,0.1,2,0.3s1.1,0.5,1.6,1l-2.1,2.8
		C-1928.7,510.9-1929,510.6-1929.5,510.4z"/>
	<path d="M-1889,507.3h3.2v16.4h-3.2V507.3z M-1879.1,513.8c0-1.2-0.3-2.1-0.9-2.7c-0.6-0.6-1.4-0.9-2.5-0.9c-1.1,0-1.9,0.3-2.4,0.8
		c-0.6,0.6-0.9,1.3-0.9,2.4l-0.3-3.2c0.5-1,1.2-1.8,2-2.3c0.8-0.5,1.7-0.8,2.7-0.8c1.8,0,3.2,0.6,4.1,1.7c1,1.2,1.5,2.8,1.5,4.9v10
		h-3.2V513.8z"/>
	<path d="M-1853.5,524c0,0-0.5-0.3-1.6-0.9c-1.1-0.6-1.9-1.4-2.5-2.5c-0.6-1.1-0.8-2.4-0.8-4v-1.8c0-1.6,0.3-3,0.8-4.2
		c0.5-1.1,1.3-2,2.4-2.6c1-0.6,2.3-0.9,3.7-0.9c1.4,0,2.5,0.3,3.5,1c1,0.7,1.7,1.7,2.2,3c0.5,1.3,0.8,2.9,0.8,4.7v1.1h-11.1v-2.6h8
		c-0.1-1.3-0.4-2.4-1-3.1c-0.6-0.7-1.4-1.1-2.4-1.1c-1.2,0-2.2,0.4-2.8,1.2c-0.7,0.8-1,1.9-1,3.4v2.1c0,1.4,0.4,2.4,1.1,3.1
		c0.7,0.7,1.7,1.1,3.1,1.1c0.7,0,1.3-0.1,1.9-0.4c0.6-0.3,1.2-0.6,1.7-1.1l2.1,2.1c-0.8,0.8-1.7,1.4-2.7,1.8s-2,0.6-3.1,0.6
		C-1852.8,524-1853.5,524-1853.5,524z"/>
	<path d="M-1823.2,524c0,0-0.5-0.3-1.6-0.9c-1.1-0.6-1.9-1.4-2.5-2.5c-0.6-1.1-0.8-2.4-0.8-4v-1.8c0-1.6,0.3-3,0.8-4.2
		c0.5-1.1,1.3-2,2.4-2.6c1-0.6,2.3-0.9,3.7-0.9c1.4,0,2.5,0.3,3.5,1c1,0.7,1.7,1.7,2.2,3c0.5,1.3,0.8,2.9,0.8,4.7v1.1h-11.1v-2.6h8
		c-0.1-1.3-0.4-2.4-1-3.1c-0.6-0.7-1.4-1.1-2.4-1.1c-1.2,0-2.2,0.4-2.8,1.2c-0.7,0.8-1,1.9-1,3.4v2.1c0,1.4,0.4,2.4,1.1,3.1
		c0.7,0.7,1.7,1.1,3.1,1.1c0.7,0,1.3-0.1,1.9-0.4c0.6-0.3,1.2-0.6,1.7-1.1l2.1,2.1c-0.8,0.8-1.7,1.4-2.7,1.8s-2,0.6-3.1,0.6
		C-1822.5,524-1823.2,524-1823.2,524z"/>
	<path d="M-1795.2,523.2c-0.8-0.5-1.5-1.3-1.9-2.3c-0.4-1-0.7-2.2-0.7-3.6v-3.6c0-1.4,0.2-2.6,0.6-3.6s1.1-1.8,1.9-2.3
		c0.8-0.5,1.8-0.8,3-0.8c1,0,1.9,0.3,2.7,0.8s1.5,1.2,2,2.1l-0.3,3.4c0-0.7-0.1-1.3-0.4-1.8c-0.3-0.5-0.6-0.9-1.1-1.1
		c-0.5-0.3-1.1-0.4-1.7-0.4c-1.1,0-1.9,0.3-2.5,1c-0.6,0.7-0.9,1.6-0.9,2.8v3.6c0,1.2,0.3,2.1,0.9,2.8c0.6,0.6,1.4,1,2.5,1
		c0.7,0,1.3-0.1,1.7-0.4s0.8-0.7,1.1-1.2s0.4-1.1,0.4-1.8l0.2,3.5c-0.3,0.8-0.9,1.5-1.6,2c-0.7,0.5-1.7,0.8-2.7,0.8
		C-1793.4,524-1794.4,523.8-1795.2,523.2z M-1788,500.8h3.2v23h-3.2V500.8z"/>
	<path d="M-1762.6,524c0,0-0.4-0.1-1.3-0.3c-0.8-0.2-1.6-0.5-2.4-0.9c-0.7-0.4-1.4-0.9-2-1.4l1.9-2.4c0.9,0.7,1.8,1.2,2.6,1.5
		c0.9,0.3,1.7,0.5,2.6,0.5c1.3,0,2.2-0.2,2.9-0.6c0.6-0.4,1-1,1-1.8c0-0.5-0.2-0.9-0.5-1.2c-0.3-0.3-0.8-0.4-1.3-0.5
		c-0.5-0.1-1.2-0.2-2.2-0.2c-0.1,0-0.2,0-0.3,0c-0.1,0-0.2,0-0.3,0c0,0-0.1,0-0.1,0s-0.1,0-0.1,0c-1.1-0.1-2-0.2-2.7-0.5
		s-1.4-0.7-1.8-1.3c-0.5-0.6-0.7-1.5-0.7-2.7s0.2-2.1,0.7-2.9c0.5-0.8,1.2-1.3,2.1-1.7s2.1-0.6,3.5-0.6c0.9,0,1.7,0.1,2.4,0.2
		c0.8,0.2,1.5,0.4,2.2,0.7c0.7,0.3,1.4,0.7,2,1.2l-1.9,2.4c-0.8-0.5-1.6-0.9-2.4-1.2c-0.8-0.3-1.6-0.4-2.3-0.4
		c-1.1,0-1.9,0.2-2.5,0.6s-0.8,0.9-0.8,1.7c0,0.4,0.2,0.8,0.5,1c0.3,0.2,0.7,0.4,1.2,0.4c0.5,0.1,1.1,0.1,2,0.2c0.1,0,0.1,0,0.2,0
		s0.1,0,0.2,0c0,0,0.1,0,0.1,0c0,0,0.1,0,0.1,0c1.1,0.1,2.1,0.2,2.9,0.5c0.8,0.2,1.5,0.7,2,1.4c0.5,0.7,0.8,1.7,0.8,3
		c0,1.2-0.3,2.2-0.8,2.9s-1.3,1.4-2.3,1.7c-1,0.4-2.3,0.6-3.8,0.6C-1762.1,524-1762.6,524-1762.6,524z"/>
	<path d="M-1713,523.1c-1-0.6-1.8-1.4-2.3-2.4s-0.8-2.4-0.8-3.9v-2.7c0-1.5,0.3-2.8,0.8-3.8c0.5-1.1,1.3-1.9,2.3-2.4
		s2.2-0.8,3.7-0.8s2.6,0.3,3.7,0.8c1,0.6,1.8,1.4,2.3,2.4c0.5,1.1,0.8,2.3,0.8,3.8v2.7c0,1.5-0.3,2.8-0.8,3.8
		c-0.5,1.1-1.3,1.9-2.3,2.4c-1,0.6-2.2,0.8-3.7,0.8S-1711.9,523.7-1713,523.1z M-1706.7,519.9c0.6-0.7,0.9-1.7,0.9-3v-2.7
		c0-1.3-0.3-2.3-0.9-3c-0.6-0.7-1.5-1-2.6-1s-2,0.3-2.6,1c-0.6,0.7-0.9,1.7-0.9,3v2.7c0,1.3,0.3,2.3,0.9,3c0.6,0.7,1.5,1.1,2.6,1.1
		S-1707.3,520.6-1706.7,519.9z"/>
	<path d="M-1682.2,517.3c0,1.1,0.3,2,0.9,2.7c0.6,0.6,1.4,0.9,2.5,0.9c1.1,0,1.9-0.3,2.5-0.8c0.6-0.6,0.9-1.4,0.9-2.4l0.2,3.4
		c-0.3,0.8-0.9,1.5-1.6,2s-1.7,0.8-2.8,0.8c-1.8,0-3.2-0.6-4.2-1.7c-1-1.2-1.5-2.8-1.5-4.9v-10h3.2V517.3z M-1675.5,507.3h3.2v16.4
		h-3.2V507.3z"/>
	<path d="M-1654.4,507.3h3.2v16.4h-3.2V507.3z M-1646.5,510.4c-0.4-0.2-0.9-0.3-1.5-0.3c-1,0-1.8,0.3-2.4,0.8
		c-0.6,0.6-0.8,1.3-0.8,2.3l-0.3-3.2c0.5-1,1.2-1.7,2-2.3s1.7-0.8,2.7-0.8c0.7,0,1.4,0.1,2,0.3c0.6,0.2,1.1,0.5,1.6,1l-2.1,2.8
		C-1645.7,510.9-1646.1,510.6-1646.5,510.4z"/>
	<path d="M-1606,507.3h3.2v16.4h-3.2V507.3z M-1596.1,513.8c0-1.2-0.3-2.1-0.9-2.7c-0.6-0.6-1.4-0.9-2.5-0.9c-1.1,0-1.9,0.3-2.4,0.8
		s-0.9,1.3-0.9,2.4l-0.3-3.2c0.5-1,1.2-1.8,2-2.3c0.8-0.5,1.7-0.8,2.7-0.8c1.8,0,3.2,0.6,4.1,1.7c1,1.2,1.5,2.8,1.5,4.9v10h-3.2
		V513.8z"/>
	<path d="M-1570.6,524c0,0-0.5-0.3-1.6-0.9c-1.1-0.6-1.9-1.4-2.5-2.5c-0.6-1.1-0.8-2.4-0.8-4v-1.8c0-1.6,0.3-3,0.8-4.2
		s1.3-2,2.4-2.6c1-0.6,2.3-0.9,3.7-0.9c1.4,0,2.5,0.3,3.5,1c1,0.7,1.7,1.7,2.2,3c0.5,1.3,0.8,2.9,0.8,4.7v1.1h-11.1v-2.6h8
		c-0.1-1.3-0.4-2.4-1-3.1c-0.6-0.7-1.4-1.1-2.4-1.1c-1.2,0-2.2,0.4-2.8,1.2c-0.7,0.8-1,1.9-1,3.4v2.1c0,1.4,0.4,2.4,1.1,3.1
		c0.7,0.7,1.7,1.1,3.1,1.1c0.7,0,1.3-0.1,1.9-0.4s1.2-0.6,1.7-1.1l2.1,2.1c-0.8,0.8-1.7,1.4-2.7,1.8s-2,0.6-3.1,0.6
		C-1569.8,524-1570.6,524-1570.6,524z"/>
	<path d="M-1540.3,524c0,0-0.5-0.3-1.6-0.9c-1.1-0.6-1.9-1.4-2.5-2.5c-0.6-1.1-0.8-2.4-0.8-4v-1.8c0-1.6,0.3-3,0.8-4.2
		s1.3-2,2.4-2.6c1-0.6,2.3-0.9,3.7-0.9c1.4,0,2.5,0.3,3.5,1c1,0.7,1.7,1.7,2.2,3c0.5,1.3,0.8,2.9,0.8,4.7v1.1h-11.1v-2.6h8
		c-0.1-1.3-0.4-2.4-1-3.1c-0.6-0.7-1.4-1.1-2.4-1.1c-1.2,0-2.2,0.4-2.8,1.2c-0.7,0.8-1,1.9-1,3.4v2.1c0,1.4,0.4,2.4,1.1,3.1
		c0.7,0.7,1.7,1.1,3.1,1.1c0.7,0,1.3-0.1,1.9-0.4s1.2-0.6,1.7-1.1l2.1,2.1c-0.8,0.8-1.7,1.4-2.7,1.8s-2,0.6-3.1,0.6
		C-1539.5,524-1540.3,524-1540.3,524z"/>
	<path d="M-1512.3,523.2c-0.8-0.5-1.5-1.3-1.9-2.3s-0.7-2.2-0.7-3.6v-3.6c0-1.4,0.2-2.6,0.6-3.6c0.4-1,1.1-1.8,1.9-2.3
		s1.8-0.8,3-0.8c1,0,1.9,0.3,2.7,0.8c0.8,0.5,1.5,1.2,2,2.1l-0.3,3.4c0-0.7-0.1-1.3-0.4-1.8c-0.3-0.5-0.6-0.9-1.1-1.1
		c-0.5-0.3-1.1-0.4-1.7-0.4c-1.1,0-1.9,0.3-2.5,1s-0.9,1.6-0.9,2.8v3.6c0,1.2,0.3,2.1,0.9,2.8s1.4,1,2.5,1c0.7,0,1.3-0.1,1.7-0.4
		s0.8-0.7,1.1-1.2s0.4-1.1,0.4-1.8l0.2,3.5c-0.3,0.8-0.9,1.5-1.6,2s-1.7,0.8-2.7,0.8C-1510.4,524-1511.4,523.8-1512.3,523.2z
		 M-1505.1,500.8h3.2v23h-3.2V500.8z"/>
	<path d="M-1479.6,524c0,0-0.4-0.1-1.3-0.3c-0.8-0.2-1.6-0.5-2.4-0.9c-0.7-0.4-1.4-0.9-2-1.4l1.9-2.4c0.9,0.7,1.8,1.2,2.6,1.5
		c0.9,0.3,1.7,0.5,2.6,0.5c1.3,0,2.2-0.2,2.9-0.6c0.6-0.4,1-1,1-1.8c0-0.5-0.2-0.9-0.5-1.2c-0.3-0.3-0.8-0.4-1.3-0.5
		c-0.5-0.1-1.2-0.2-2.2-0.2c-0.1,0-0.2,0-0.3,0c-0.1,0-0.2,0-0.3,0c0,0-0.1,0-0.1,0c0,0-0.1,0-0.1,0c-1.1-0.1-2-0.2-2.7-0.5
		s-1.4-0.7-1.8-1.3c-0.5-0.6-0.7-1.5-0.7-2.7s0.2-2.1,0.7-2.9c0.5-0.8,1.2-1.3,2.1-1.7s2.1-0.6,3.5-0.6c0.9,0,1.7,0.1,2.4,0.2
		s1.5,0.4,2.2,0.7c0.7,0.3,1.4,0.7,2,1.2l-1.9,2.4c-0.8-0.5-1.6-0.9-2.4-1.2s-1.6-0.4-2.3-0.4c-1.1,0-1.9,0.2-2.5,0.6
		c-0.5,0.4-0.8,0.9-0.8,1.7c0,0.4,0.2,0.8,0.5,1c0.3,0.2,0.7,0.4,1.2,0.4c0.5,0.1,1.1,0.1,2,0.2c0.1,0,0.1,0,0.2,0
		c0.1,0,0.1,0,0.2,0c0,0,0.1,0,0.1,0c0,0,0.1,0,0.1,0c1.1,0.1,2.1,0.2,2.9,0.5c0.8,0.2,1.5,0.7,2,1.4c0.5,0.7,0.8,1.7,0.8,3
		c0,1.2-0.3,2.2-0.8,2.9s-1.3,1.4-2.3,1.7c-1,0.4-2.3,0.6-3.8,0.6C-1479.2,524-1479.6,524-1479.6,524z"/>
</g>
<g>
	<g>
		<g>
			<path d="M345.4,100.3c0-9.2,0.3-18.4-0.1-27.6c-0.2-4.6,1.9-4.8,5.5-4.7c3.3,0.1,5.7-0.2,5.6,4.6c-0.3,15.1,0,30.3-0.2,45.4
				c-0.1,4.1,0.7,6.2,5.2,5.4c1.9-0.3,3.9,0.3,5.7-0.1c5.9-1.2,6.1,2.2,5.8,6.5c-0.1,2.4-1.3,2.8-3.2,2.8c-6.7-0.1-13.4-0.2-20.1,0
				c-3.3,0.1-4.3-0.9-4.2-4.2C345.5,119.1,345.4,109.7,345.4,100.3z"/>
			<path d="M324.4,96c0,7.9,0.1,15.7-0.1,23.6c-0.1,3,0.9,4.1,3.9,3.9c2.5-0.2,5,0.1,7.5-0.1c3.3-0.2,5.7-0.3,5.7,4.5
				c-0.1,4.4-1.8,4.9-5.4,4.8c-6.1-0.2-12.3-0.2-18.4,0c-3.1,0.1-3.9-1-3.8-3.9c0.1-19,0.2-37.9,0-56.9c-0.1-5.1,3.2-3.6,5.7-3.7
				c2.6-0.1,5.3-0.8,5.1,3.7C324.2,79.9,324.4,88,324.4,96z"/>
			<path d="M308.7,127.1c-2.7-17.4-5.8-34.8-8.4-52.3c-0.8-5.4-2-9-8.6-6.7c-6.1-2.3-7.5,1-8.3,6.6c-2.5,17.3-5.4,34.5-8.4,51.7
				c-0.9,4.8,0,6,5.1,6.1c6.3,0,4.8-4.4,5.1-7.4c0.5-4.1,1.9-5.6,6.3-5.6c4.5,0,6.2,1.5,6.3,5.7c0,1.1,0.3,2.3,0.4,3.4
				c0.6,6.7,5.8,3.4,8.8,3.6C311.4,132.4,309,128.8,308.7,127.1z M293.1,110.4c-1.9-0.2-3.8,0.5-5.7-0.6c1.2-8.7,2.4-17.3,3.7-26
				c0.3,0,0.5,0,0.8,0c1.2,8,2.3,16,3.6,24C295.8,109.8,295.1,110.6,293.1,110.4z"/>
			<path d="M259.4,132.7c-2.7,0-5-0.4-7.2-1.3c-1.9-0.8-3.2-1.7-3.9-2.9c-2.4-3.3-4.1-6.8-5.4-10.8c-2.1-6.4-2.9-13.3-2.5-21.1
				c0.3-7.6,1.9-15.1,4.5-22.1c1.9-5.1,4.3-9.4,7.2-13.2c1.9-2.4,4-4.6,6.4-6.5c1-0.8,2.3-1.3,3.8-1.4c0.8-0.1,1.7-0.1,2.5-0.1
				c3.4,0,6.8,0.9,9.9,2.5c0.9,0.5,1.8,1.1,2.1,2.2c0.2,0.9,0.3,1.8,0.3,2.6c0,2.8-0.7,5.5-1.4,8.2c-0.6,2.3-1.5,5.3-3,8.2
				c-0.3,0.5-0.6,1.1-1,1.6c-0.6,0.9-1.5,1.4-2.5,1.4c-0.2,0-0.4,0-0.6,0c-1-0.2-2.1-0.4-3.5-0.9c-1-0.3-2.1-0.7-3.1-1.1
				c-0.7-0.3-1.4-0.5-2.1-0.8c-0.4-0.1-0.8-0.2-1.2-0.3l-0.3,0c-0.1,0-0.2,0-0.3,0c-0.5,0-0.9,0.3-1.2,0.8c-1.3,2.4-2.3,5-3.1,8.1
				c-1.4,5.4-1.9,10.4-1.5,15.3c0.1,1.2,0.3,2.3,0.5,3.4c0.1,0.6,0.2,1.2,0.3,1.8c0.1,0.7,0.6,1.1,1.2,1.1l0.4,0c0.6,0,1.2,0,1.7,0
				c0.4,0,0.8,0,1.1,0c0.8,0,1.6-0.1,2.5-0.2c1.2-0.1,2.5-0.2,3.8-0.2c1.8,0,2.9,0.6,3.4,1.8c0.3,0.7,0.6,1.4,0.7,2.3
				c0.6,3.3,0.8,6.8,0.6,11.3c-0.1,1.9-0.3,4.3-1,6.7c-0.5,1.6-1.5,2.6-3.1,2.9c-1.2,0.2-2.7,0.5-4.3,0.6
				C259.9,132.7,259.7,132.7,259.4,132.7C259.4,132.7,259.4,132.7,259.4,132.7z"/>
		</g>
		<path d="M210.3,132.8c-11,0.8-11,0.8-13.9-8.8c-1.7-5.6-3.5-11.3-5.3-17.4c-5.7,6.4-3.8,13.5-3.7,20c0.1,5-1,7-6.5,6.7
			c-4.2-0.2-4.5-1.8-4.5-5.2c0.1-18.2,0.3-36.5-0.1-54.7c-0.1-5,2.2-4.8,5.8-5c3.9-0.2,5.5,0.8,5.2,5c-0.4,6.1-0.1,12.2,1.1,18.6
			c2.5-5.2,4.9-10.4,7.4-15.7c3.9-8.4,3.9-8.4,14.4-7.5c-3.3,6.5-6.3,12.9-9.6,19c-1.8,3.3-2,6.2-0.8,9.8
			C203.4,109.3,206.7,120.9,210.3,132.8z"/>
		<path d="M104.5,95.2c0,7.5,0.2,15,0,22.4c-0.3,10.8-5.5,15.9-16.1,15.8c-9.5-0.1-14.6-5.4-14.7-15.9c-0.1-15.1,0.2-30.3-0.1-45.4
			c-0.1-4.4,2-4.5,5.2-4.3c2.9,0.2,6-1.1,5.9,4.2c-0.4,13.8-0.1,27.6-0.1,41.4c0,1.3,0,2.7,0,4c-0.1,3.4,0.8,6.5,4.7,6.6
			c3.9,0.1,4.8-3,4.8-6.5c0-14.4,0-28.8,0-43.1c0-6.6,2-8.1,8.5-6.7c2.7,0.6,2,2.4,2,3.9C104.5,79.5,104.5,87.3,104.5,95.2z"/>
		<path d="M140.5,99.4c0-6.5-0.4-13.1,0.1-19.5c0.6-8.6,5.7-13.2,14.2-13.3c9.7-0.1,14.6,3.8,15.8,12.9c0.2,1.3,0.3,2.7,0.3,4
			c0.1,5.6-4,8.3-9,6c-2.2-1-1.2-3-1.3-4.5c-0.3-3.7,0.8-8.9-4.6-8.9c-5.8,0-4.8,5.3-4.9,9.2c-0.1,10.2-0.1,20.3,0,30.5
			c0,1.7,0.1,3.5,0.6,5.1c0.5,2.1,2.3,3.2,4.3,3.1c2-0.1,3.8-1.2,4.2-3.3c0.3-1.9,0.4-3.8,0.4-5.7c0.1-7.3,0.7-7.8,7.7-7
			c1.9,0.2,2.8,0.8,2.7,2.7c-0.1,3.3,0,6.5-0.4,9.8c-1.1,9.1-6.1,13-15.8,12.9c-8.5-0.1-13.6-4.6-14.2-13.3
			C140.1,113.2,140.5,106.3,140.5,99.4z"/>
		<path d="M65.9,126c-1.6-0.2-2.3-1.5-1.5-3.2c4.8-10.7,1.4-22,2.5-31.1c0-9.3,0.2-16.8,0-24.3C66.4,54.6,59.7,48,47.6,47.9
			c-12.9-0.1-19.9,6.3-20.2,19.2c-0.4,15.2-0.3,30.4,0,45.6c0.3,12.9,7.3,19.6,20.2,19.2c4.7-0.1,8.3,0.2,11.8,4.1
			c2.5,2.8,8.2,3.5,10.1,0.3C70.5,134.4,74,127.1,65.9,126z M46.8,120.2c-4.5-0.1-5.9-3.5-5.8-7.6c0-15,0-30,0-44.9
			c0-4.4,1.4-8,6.3-7.9c4.5,0.1,5.9,3.5,5.8,7.6c-0.1,7.7,0,15.5,0,23.2c0,7.2,0,14.5,0,21.7C53.2,116.7,51.8,120.3,46.8,120.2z"/>
		<path d="M122.3,105c-4.3,0.6-8.4,1.2-12.7,1.8c7-19.7,14-39.3,20.9-58.9c0,0,0.1,0,0.1,0.1c-1.8,14.2-3.7,28.4-5.5,42.8
			c3.8-0.2,7.6-0.4,11.5-0.5c-6.5,19.5-13,38.8-19.5,58.1c0,0-0.1,0-0.1,0C118.7,133.9,120.5,119.5,122.3,105z"/>
	</g>
	<path d="M373.8,157H26.2c-0.7,0-1.2-0.6-1.2-1.2s0.6-1.2,1.2-1.2h347.5c0.7,0,1.2,0.6,1.2,1.2S374.4,157,373.8,157z"/>
	<g>
		<path d="M32.9,171.7v5.8h-2v-5.8l-4.3-8.4h2.2l3.1,6.4l3.1-6.4h2.2L32.9,171.7z"/>
		<path d="M47.2,177.1c-0.6-0.3-1.1-0.8-1.4-1.5s-0.5-1.5-0.5-2.4v-1.6c0-0.9,0.2-1.7,0.5-2.4c0.3-0.7,0.8-1.1,1.4-1.5
			c0.6-0.3,1.4-0.5,2.3-0.5c0.9,0,1.6,0.2,2.2,0.5c0.6,0.3,1.1,0.8,1.4,1.5c0.3,0.7,0.5,1.4,0.5,2.4v1.7c0,0.9-0.2,1.7-0.5,2.4
			c-0.3,0.7-0.8,1.2-1.4,1.5c-0.6,0.3-1.4,0.5-2.2,0.5C48.6,177.6,47.8,177.4,47.2,177.1z M51.1,175.1c0.4-0.4,0.6-1,0.6-1.8v-1.7
			c0-0.8-0.2-1.4-0.6-1.8c-0.4-0.4-0.9-0.6-1.6-0.6c-0.7,0-1.2,0.2-1.6,0.6c-0.4,0.4-0.6,1-0.6,1.8v1.7c0,0.8,0.2,1.4,0.6,1.8
			c0.4,0.4,0.9,0.7,1.6,0.7C50.2,175.7,50.7,175.5,51.1,175.1z"/>
		<path d="M66.2,173.5c0,0.7,0.2,1.3,0.5,1.6c0.4,0.4,0.9,0.6,1.5,0.6c0.6,0,1.2-0.2,1.5-0.5c0.4-0.3,0.5-0.8,0.5-1.5l0.1,2.1
			c-0.2,0.5-0.5,0.9-1,1.3c-0.5,0.3-1,0.5-1.7,0.5c-1.1,0-2-0.4-2.6-1.1c-0.6-0.7-0.9-1.7-0.9-3v-6.1h2V173.5z M70.3,167.3h2v10.1
			h-2V167.3z"/>
		<path d="M83.3,167.3h2v10.1h-2V167.3z M88.2,169.3c-0.3-0.1-0.6-0.2-0.9-0.2c-0.6,0-1.1,0.2-1.5,0.5c-0.3,0.3-0.5,0.8-0.5,1.4
			l-0.2-1.9c0.3-0.6,0.7-1.1,1.2-1.4c0.5-0.3,1-0.5,1.6-0.5c0.5,0,0.9,0.1,1.3,0.2c0.4,0.1,0.7,0.3,1,0.6l-1.3,1.8
			C88.7,169.5,88.4,169.4,88.2,169.3z"/>
		<path d="M113.1,167.3h2v10.1h-2V167.3z M119.2,171.3c0-0.7-0.2-1.3-0.6-1.7c-0.4-0.4-0.9-0.6-1.6-0.6c-0.6,0-1.2,0.2-1.5,0.5
			c-0.4,0.3-0.5,0.8-0.5,1.5l-0.2-1.9c0.3-0.6,0.7-1.1,1.2-1.4c0.5-0.3,1.1-0.5,1.7-0.5c1.1,0,1.9,0.4,2.5,1.1
			c0.6,0.7,0.9,1.7,0.9,3v6.1h-2V171.3z"/>
		<path d="M135,177.6c0,0-0.3-0.2-1-0.5c-0.7-0.4-1.2-0.9-1.5-1.5c-0.3-0.7-0.5-1.5-0.5-2.5v-1.1c0-1,0.2-1.9,0.5-2.6
			c0.3-0.7,0.8-1.2,1.5-1.6c0.6-0.4,1.4-0.6,2.3-0.6c0.8,0,1.6,0.2,2.2,0.6c0.6,0.4,1.1,1,1.4,1.8c0.3,0.8,0.5,1.8,0.5,2.9v0.7h-6.8
			v-1.6h4.9c-0.1-0.8-0.3-1.5-0.6-1.9c-0.4-0.5-0.9-0.7-1.5-0.7c-0.8,0-1.3,0.2-1.7,0.7c-0.4,0.5-0.6,1.2-0.6,2.1v1.3
			c0,0.8,0.2,1.5,0.7,1.9c0.4,0.4,1.1,0.7,1.9,0.7c0.4,0,0.8-0.1,1.2-0.2c0.4-0.2,0.7-0.4,1.1-0.7l1.3,1.3c-0.5,0.5-1.1,0.9-1.7,1.1
			s-1.3,0.4-1.9,0.4C135.4,177.6,135,177.6,135,177.6z"/>
		<path d="M153.6,177.6c0,0-0.3-0.2-1-0.5c-0.7-0.4-1.2-0.9-1.5-1.5c-0.3-0.7-0.5-1.5-0.5-2.5v-1.1c0-1,0.2-1.9,0.5-2.6
			c0.3-0.7,0.8-1.2,1.5-1.6c0.6-0.4,1.4-0.6,2.3-0.6c0.8,0,1.6,0.2,2.2,0.6c0.6,0.4,1.1,1,1.4,1.8c0.3,0.8,0.5,1.8,0.5,2.9v0.7h-6.8
			v-1.6h4.9c-0.1-0.8-0.3-1.5-0.6-1.9c-0.4-0.5-0.9-0.7-1.5-0.7c-0.8,0-1.3,0.2-1.7,0.7c-0.4,0.5-0.6,1.2-0.6,2.1v1.3
			c0,0.8,0.2,1.5,0.7,1.9c0.4,0.4,1.1,0.7,1.9,0.7c0.4,0,0.8-0.1,1.2-0.2c0.4-0.2,0.7-0.4,1.1-0.7l1.3,1.3c-0.5,0.5-1.1,0.9-1.7,1.1
			c-0.6,0.3-1.3,0.4-1.9,0.4C154.1,177.6,153.6,177.6,153.6,177.6z"/>
		<path d="M170.9,177.1c-0.5-0.3-0.9-0.8-1.2-1.4c-0.3-0.6-0.4-1.4-0.4-2.2v-2.2c0-0.9,0.1-1.6,0.4-2.2c0.3-0.6,0.7-1.1,1.2-1.4
			c0.5-0.3,1.1-0.5,1.8-0.5c0.6,0,1.1,0.2,1.6,0.5s0.9,0.7,1.2,1.3l-0.2,2.1c0-0.4-0.1-0.8-0.2-1.1c-0.2-0.3-0.4-0.5-0.7-0.7
			c-0.3-0.2-0.7-0.2-1.1-0.2c-0.7,0-1.2,0.2-1.5,0.6c-0.4,0.4-0.5,1-0.5,1.7v2.2c0,0.7,0.2,1.3,0.5,1.7c0.4,0.4,0.9,0.6,1.5,0.6
			c0.4,0,0.8-0.1,1.1-0.2s0.5-0.4,0.7-0.7s0.2-0.7,0.2-1.1l0.1,2.1c-0.2,0.5-0.5,0.9-1,1.3c-0.5,0.3-1,0.5-1.7,0.5
			C172,177.6,171.4,177.5,170.9,177.1z M175.3,163.3h2v14.2h-2V163.3z"/>
		<path d="M191,177.6c0,0-0.3-0.1-0.8-0.2c-0.5-0.1-1-0.3-1.5-0.5c-0.5-0.2-0.9-0.5-1.3-0.9l1.2-1.5c0.5,0.4,1.1,0.7,1.6,0.9
			c0.5,0.2,1.1,0.3,1.6,0.3c0.8,0,1.4-0.1,1.8-0.4c0.4-0.2,0.6-0.6,0.6-1.1c0-0.3-0.1-0.6-0.3-0.7c-0.2-0.2-0.5-0.3-0.8-0.3
			c-0.3-0.1-0.8-0.1-1.3-0.2c-0.1,0-0.1,0-0.2,0c-0.1,0-0.1,0-0.2,0c0,0-0.1,0-0.1,0c0,0-0.1,0-0.1,0c-0.7-0.1-1.2-0.1-1.7-0.3
			c-0.5-0.1-0.8-0.4-1.1-0.8c-0.3-0.4-0.5-0.9-0.5-1.6c0-0.7,0.1-1.3,0.4-1.8c0.3-0.5,0.7-0.8,1.3-1.1s1.3-0.4,2.2-0.4
			c0.5,0,1,0,1.5,0.1c0.5,0.1,0.9,0.2,1.4,0.4c0.4,0.2,0.9,0.4,1.3,0.7l-1.2,1.5c-0.5-0.3-1-0.6-1.5-0.7c-0.5-0.2-1-0.2-1.4-0.2
			c-0.7,0-1.2,0.1-1.5,0.3c-0.3,0.2-0.5,0.6-0.5,1c0,0.3,0.1,0.5,0.3,0.6c0.2,0.1,0.4,0.2,0.7,0.3c0.3,0,0.7,0.1,1.2,0.1
			c0,0,0.1,0,0.1,0c0,0,0.1,0,0.1,0c0,0,0,0,0.1,0c0,0,0,0,0.1,0c0.7,0,1.3,0.1,1.8,0.3c0.5,0.1,0.9,0.4,1.3,0.8
			c0.3,0.4,0.5,1,0.5,1.8c0,0.7-0.2,1.3-0.5,1.8c-0.3,0.5-0.8,0.8-1.4,1.1c-0.6,0.2-1.4,0.4-2.4,0.4
			C191.3,177.6,191,177.6,191,177.6z"/>
		<path d="M221.6,177.1c-0.6-0.3-1.1-0.8-1.4-1.5c-0.3-0.7-0.5-1.5-0.5-2.4v-1.6c0-0.9,0.2-1.7,0.5-2.4c0.3-0.7,0.8-1.1,1.4-1.5
			c0.6-0.3,1.4-0.5,2.2-0.5s1.6,0.2,2.2,0.5c0.6,0.3,1.1,0.8,1.4,1.5c0.3,0.7,0.5,1.4,0.5,2.4v1.7c0,0.9-0.2,1.7-0.5,2.4
			c-0.3,0.7-0.8,1.2-1.4,1.5c-0.6,0.3-1.4,0.5-2.2,0.5S222.2,177.4,221.6,177.1z M225.5,175.1c0.4-0.4,0.6-1,0.6-1.8v-1.7
			c0-0.8-0.2-1.4-0.6-1.8c-0.4-0.4-0.9-0.6-1.6-0.6c-0.7,0-1.2,0.2-1.6,0.6c-0.4,0.4-0.6,1-0.6,1.8v1.7c0,0.8,0.2,1.4,0.6,1.8
			c0.4,0.4,0.9,0.7,1.6,0.7C224.5,175.7,225.1,175.5,225.5,175.1z"/>
		<path d="M240.6,173.5c0,0.7,0.2,1.3,0.5,1.6c0.4,0.4,0.9,0.6,1.5,0.6c0.6,0,1.2-0.2,1.5-0.5c0.4-0.3,0.5-0.8,0.5-1.5l0.1,2.1
			c-0.2,0.5-0.5,0.9-1,1.3s-1,0.5-1.7,0.5c-1.1,0-2-0.4-2.6-1.1c-0.6-0.7-0.9-1.7-0.9-3v-6.1h2V173.5z M244.7,167.3h2v10.1h-2V167.3
			z"/>
		<path d="M257.7,167.3h2v10.1h-2V167.3z M262.6,169.3c-0.3-0.1-0.6-0.2-0.9-0.2c-0.6,0-1.1,0.2-1.5,0.5c-0.3,0.3-0.5,0.8-0.5,1.4
			l-0.2-1.9c0.3-0.6,0.7-1.1,1.2-1.4s1-0.5,1.6-0.5c0.5,0,0.9,0.1,1.3,0.2c0.4,0.1,0.7,0.3,1,0.6l-1.3,1.8
			C263,169.5,262.8,169.4,262.6,169.3z"/>
		<path d="M287.5,167.3h2v10.1h-2V167.3z M293.6,171.3c0-0.7-0.2-1.3-0.6-1.7c-0.4-0.4-0.9-0.6-1.6-0.6c-0.6,0-1.2,0.2-1.5,0.5
			c-0.4,0.3-0.5,0.8-0.5,1.5l-0.2-1.9c0.3-0.6,0.7-1.1,1.2-1.4c0.5-0.3,1.1-0.5,1.7-0.5c1.1,0,1.9,0.4,2.5,1.1
			c0.6,0.7,0.9,1.7,0.9,3v6.1h-2V171.3z"/>
		<path d="M309.3,177.6c0,0-0.3-0.2-1-0.5c-0.7-0.4-1.2-0.9-1.5-1.5c-0.3-0.7-0.5-1.5-0.5-2.5v-1.1c0-1,0.2-1.9,0.5-2.6
			c0.3-0.7,0.8-1.2,1.5-1.6c0.6-0.4,1.4-0.6,2.3-0.6c0.8,0,1.6,0.2,2.2,0.6c0.6,0.4,1.1,1,1.4,1.8c0.3,0.8,0.5,1.8,0.5,2.9v0.7h-6.8
			v-1.6h4.9c-0.1-0.8-0.3-1.5-0.6-1.9c-0.4-0.5-0.9-0.7-1.5-0.7c-0.8,0-1.3,0.2-1.7,0.7c-0.4,0.5-0.6,1.2-0.6,2.1v1.3
			c0,0.8,0.2,1.5,0.7,1.9c0.4,0.4,1.1,0.7,1.9,0.7c0.4,0,0.8-0.1,1.2-0.2c0.4-0.2,0.8-0.4,1.1-0.7l1.3,1.3c-0.5,0.5-1.1,0.9-1.7,1.1
			s-1.2,0.4-1.9,0.4C309.8,177.6,309.3,177.6,309.3,177.6z"/>
		<path d="M328,177.6c0,0-0.3-0.2-1-0.5c-0.7-0.4-1.2-0.9-1.5-1.5c-0.3-0.7-0.5-1.5-0.5-2.5v-1.1c0-1,0.2-1.9,0.5-2.6
			c0.3-0.7,0.8-1.2,1.5-1.6c0.6-0.4,1.4-0.6,2.3-0.6c0.8,0,1.6,0.2,2.2,0.6c0.6,0.4,1.1,1,1.4,1.8c0.3,0.8,0.5,1.8,0.5,2.9v0.7h-6.8
			v-1.6h4.9c-0.1-0.8-0.3-1.5-0.6-1.9c-0.4-0.5-0.9-0.7-1.5-0.7c-0.8,0-1.3,0.2-1.7,0.7c-0.4,0.5-0.6,1.2-0.6,2.1v1.3
			c0,0.8,0.2,1.5,0.7,1.9c0.4,0.4,1.1,0.7,1.9,0.7c0.4,0,0.8-0.1,1.2-0.2c0.4-0.2,0.8-0.4,1.1-0.7l1.3,1.3c-0.5,0.5-1.1,0.9-1.7,1.1
			s-1.2,0.4-1.9,0.4C328.5,177.6,328,177.6,328,177.6z"/>
		<path d="M345.3,177.1c-0.5-0.3-0.9-0.8-1.2-1.4c-0.3-0.6-0.4-1.4-0.4-2.2v-2.2c0-0.9,0.1-1.6,0.4-2.2c0.3-0.6,0.7-1.1,1.2-1.4
			c0.5-0.3,1.1-0.5,1.8-0.5c0.6,0,1.1,0.2,1.6,0.5c0.5,0.3,0.9,0.7,1.2,1.3l-0.2,2.1c0-0.4-0.1-0.8-0.2-1.1
			c-0.2-0.3-0.4-0.5-0.7-0.7c-0.3-0.2-0.7-0.2-1.1-0.2c-0.7,0-1.2,0.2-1.5,0.6c-0.4,0.4-0.5,1-0.5,1.7v2.2c0,0.7,0.2,1.3,0.5,1.7
			c0.4,0.4,0.9,0.6,1.5,0.6c0.4,0,0.8-0.1,1.1-0.2s0.5-0.4,0.7-0.7s0.2-0.7,0.2-1.1l0.1,2.1c-0.2,0.5-0.5,0.9-1,1.3
			c-0.5,0.3-1,0.5-1.7,0.5C346.4,177.6,345.8,177.5,345.3,177.1z M349.7,163.3h2v14.2h-2V163.3z"/>
		<path d="M365.4,177.6c0,0-0.3-0.1-0.8-0.2c-0.5-0.1-1-0.3-1.5-0.5c-0.5-0.2-0.9-0.5-1.3-0.9l1.2-1.5c0.5,0.4,1.1,0.7,1.6,0.9
			c0.5,0.2,1.1,0.3,1.6,0.3c0.8,0,1.4-0.1,1.8-0.4c0.4-0.2,0.6-0.6,0.6-1.1c0-0.3-0.1-0.6-0.3-0.7c-0.2-0.2-0.5-0.3-0.8-0.3
			c-0.3-0.1-0.8-0.1-1.3-0.2c-0.1,0-0.1,0-0.2,0c-0.1,0-0.1,0-0.2,0c0,0-0.1,0-0.1,0c0,0-0.1,0-0.1,0c-0.7-0.1-1.2-0.1-1.7-0.3
			c-0.5-0.1-0.8-0.4-1.1-0.8c-0.3-0.4-0.5-0.9-0.5-1.6c0-0.7,0.1-1.3,0.4-1.8c0.3-0.5,0.7-0.8,1.3-1.1s1.3-0.4,2.2-0.4
			c0.5,0,1,0,1.5,0.1c0.5,0.1,0.9,0.2,1.4,0.4c0.4,0.2,0.9,0.4,1.3,0.7l-1.2,1.5c-0.5-0.3-1-0.6-1.5-0.7c-0.5-0.2-1-0.2-1.4-0.2
			c-0.7,0-1.2,0.1-1.5,0.3c-0.3,0.2-0.5,0.6-0.5,1c0,0.3,0.1,0.5,0.3,0.6c0.2,0.1,0.4,0.2,0.7,0.3c0.3,0,0.7,0.1,1.2,0.1
			c0,0,0.1,0,0.1,0c0,0,0.1,0,0.1,0c0,0,0,0,0.1,0c0,0,0,0,0.1,0c0.7,0,1.3,0.1,1.8,0.3c0.5,0.1,0.9,0.4,1.3,0.8
			c0.3,0.4,0.5,1,0.5,1.8c0,0.7-0.2,1.3-0.5,1.8c-0.3,0.5-0.8,0.8-1.4,1.1c-0.6,0.2-1.4,0.4-2.4,0.4
			C365.7,177.6,365.4,177.6,365.4,177.6z"/>
	</g>
</g>
<g>
</g>
<g>
</g>
<g>
</g>
<g>
</g>
<g>
</g>
<g>
</g>
<g>
</g>
<g>
</g>
<g>
</g>
<g>
</g>
<g>
</g>
<g>
</g>
<g>
</g>
<g>
</g>
<g>
</g>
</svg>
