<svg id="Capa_1" data-name="Capa 1" xmlns="http://www.w3.org/2000/svg" viewBox="0 0 400 225"><defs><style>.cls-1{fill:#a6c1de;}.cls-2{fill:#fff;}</style></defs><title>Mesa de trabajo 2 copia</title><path class="cls-1" d="M345.39,100.35c0-9.2.27-18.41-.11-27.59-.19-4.58,1.94-4.8,5.46-4.72,3.31.07,5.68-.18,5.58,4.6-.33,15.13,0,30.27-.21,45.41-.07,4.08.65,6.18,5.22,5.41,1.87-.32,3.89.25,5.73-.11,5.86-1.16,6.06,2.24,5.83,6.54-.12,2.44-1.25,2.78-3.23,2.76-6.71-.06-13.42-.18-20.12,0-3.26.11-4.28-.91-4.22-4.19C345.52,119.13,345.39,109.74,345.39,100.35Z"/><path class="cls-1" d="M324.45,96c0,7.85.12,15.71-.06,23.56-.08,3,.88,4.14,3.9,3.88,2.47-.21,5,.07,7.46-.07,3.31-.18,5.73-.26,5.65,4.54-.06,4.41-1.81,4.92-5.44,4.78-6.12-.25-12.26-.22-18.38,0-3.08.11-3.86-1-3.84-3.93.11-19,.2-37.92,0-56.88-.06-5.09,3.16-3.61,5.71-3.72s5.34-.82,5.14,3.72C324.19,79.9,324.45,88,324.45,96Z"/><path class="cls-1" d="M308.74,127.13c-2.69-17.44-5.81-34.81-8.36-52.27-.8-5.42-2-9-8.64-6.72-6.09-2.27-7.52,1-8.32,6.6-2.49,17.27-5.37,34.49-8.44,51.67-.86,4.77,0,6,5.1,6.05,6.26,0,4.78-4.38,5.12-7.44.46-4.14,1.85-5.63,6.33-5.64s6.19,1.48,6.25,5.66c0,1.14.31,2.28.42,3.42.6,6.73,5.77,3.39,8.83,3.61C311.35,132.39,309,128.75,308.74,127.13Zm-15.61-16.75c-1.87-.18-3.81.45-5.72-.59q1.83-13,3.66-26l.8,0c1.19,8,2.32,16,3.6,24C295.8,109.81,295.11,110.56,293.13,110.38Z"/><path class="cls-2" d="M259.38,132.71a19,19,0,0,1-7.24-1.32,7.87,7.87,0,0,1-3.91-2.86,38.75,38.75,0,0,1-5.35-10.75,59.89,59.89,0,0,1-2.54-21.1,71.27,71.27,0,0,1,4.5-22.06,51.36,51.36,0,0,1,7.23-13.24,35.7,35.7,0,0,1,6.41-6.47,7.38,7.38,0,0,1,3.78-1.44,21.52,21.52,0,0,1,2.52-.14,20.47,20.47,0,0,1,9.86,2.53A3.63,3.63,0,0,1,276.72,58a10.74,10.74,0,0,1,.31,2.63,32,32,0,0,1-1.38,8.21,40.3,40.3,0,0,1-3,8.2,12.49,12.49,0,0,1-1,1.62,2.93,2.93,0,0,1-2.51,1.38,4.16,4.16,0,0,1-.6,0,23.27,23.27,0,0,1-3.54-.9C264,78.78,263,78.4,262,78l-2.11-.75a7.09,7.09,0,0,0-1.16-.25l-.26,0-.29,0a1.36,1.36,0,0,0-1.22.79,33.83,33.83,0,0,0-3.1,8.06,47.13,47.13,0,0,0-1.51,15.34c.08,1.16.28,2.32.46,3.43.1.59.2,1.18.29,1.77a1.24,1.24,0,0,0,1.23,1.14h.44c.58,0,1.16,0,1.74,0l1.14,0c.83,0,1.65-.1,2.47-.16,1.25-.09,2.54-.19,3.8-.19,1.8,0,2.88.56,3.45,1.77a9.91,9.91,0,0,1,.73,2.27,45.16,45.16,0,0,1,.6,11.33,26.94,26.94,0,0,1-1,6.68,3.9,3.9,0,0,1-3.13,2.9,25.06,25.06,0,0,1-4.27.58l-.83,0Z"/><path class="cls-1" d="M210.34,132.84c-11,.76-11,.76-13.92-8.81-1.73-5.65-3.46-11.29-5.34-17.45-5.7,6.38-3.79,13.49-3.7,20,.07,5-1,7-6.49,6.74-4.17-.2-4.53-1.8-4.51-5.15.11-18.22.26-36.45-.08-54.67-.1-5,2.23-4.85,5.82-5,3.88-.15,5.45.79,5.2,5A77.47,77.47,0,0,0,188.4,92.2q3.69-7.85,7.37-15.68c3.9-8.37,3.9-8.37,14.35-7.47-3.25,6.5-6.25,12.86-9.59,19a11.41,11.41,0,0,0-.85,9.78C203.41,109.33,206.74,120.92,210.34,132.84Z"/><path class="cls-1" d="M104.45,95.2c0,7.48.15,15,0,22.44-.28,10.82-5.55,15.87-16.1,15.75-9.53-.1-14.61-5.44-14.69-15.91-.12-15.15.16-30.31-.15-45.45-.09-4.44,2-4.51,5.2-4.31,2.87.18,6-1.06,5.86,4.23-.37,13.8-.12,27.61-.12,41.42,0,1.34,0,2.69,0,4-.11,3.41.8,6.52,4.69,6.58s4.78-3,4.77-6.45c-.05-14.39,0-28.77,0-43.15,0-6.63,2-8,8.54-6.69,2.71.57,2,2.39,2,3.92C104.49,79.47,104.46,87.34,104.45,95.2Z"/><path class="cls-1" d="M140.47,99.42c0-6.52-.35-13.06.08-19.55.59-8.64,5.74-13.17,14.21-13.28,9.68-.13,14.56,3.82,15.82,12.87a33.35,33.35,0,0,1,.32,4c.14,5.57-4,8.31-9,6-2.22-1-1.22-3-1.33-4.51-.27-3.72.82-8.87-4.61-8.89-5.79,0-4.83,5.34-4.86,9.24-.08,10.17,0,20.33,0,30.49a21.35,21.35,0,0,0,.56,5.11,4.39,4.39,0,0,0,8.46-.2,32.11,32.11,0,0,0,.39-5.72c.07-7.32.68-7.8,7.72-7,1.91.23,2.78.82,2.7,2.74-.13,3.26,0,6.54-.35,9.76-1.15,9.08-6.08,13-15.79,12.87-8.47-.11-13.64-4.64-14.2-13.28C140.11,113.24,140.47,106.32,140.47,99.42Z"/><path class="cls-1" d="M65.92,126c-1.6-.23-2.31-1.46-1.52-3.25,4.77-10.67,1.44-22,2.52-31.1,0-9.32.21-16.81,0-24.28C66.44,54.58,59.73,48,47.56,47.9c-12.87-.08-20,6.3-20.25,19.21q-.52,22.81,0,45.63c.29,13,7.34,19.56,20.15,19.22,4.65-.13,8.33.22,11.82,4.1,2.55,2.83,8.17,3.5,10.08.29C70.52,134.4,74,127.12,65.92,126Zm-19.07-5.78c-4.47-.11-5.86-3.49-5.85-7.62q.06-22.45,0-44.93c0-4.41,1.36-8,6.3-7.87,4.47.1,5.87,3.48,5.85,7.61-.06,7.73,0,15.46,0,23.19,0,7.24,0,14.49,0,21.74C53.19,116.72,51.79,120.3,46.85,120.19Z"/><path class="cls-2" d="M122.26,105l-12.7,1.85,20.92-58.91.12.06c-1.84,14.21-3.67,28.42-5.52,42.77l11.49-.55c-6.52,19.47-13,38.8-19.48,58.14l-.12-.05C118.73,133.89,120.49,119.49,122.26,105Z"/><path class="cls-1" d="M373.77,157H26.23a1.24,1.24,0,0,1,0-2.47H373.77a1.24,1.24,0,0,1,0,2.47Z"/><path class="cls-1" d="M32.91,171.7v5.75h-2V171.7l-4.31-8.41h2.21l3.1,6.39,3.1-6.39h2.21Z"/><path class="cls-1" d="M47.22,177.08a3.33,3.33,0,0,1-1.42-1.5,5.31,5.31,0,0,1-.5-2.39v-1.64a5.13,5.13,0,0,1,.5-2.35,3.31,3.31,0,0,1,1.42-1.49,4.67,4.67,0,0,1,2.25-.52,4.62,4.62,0,0,1,2.25.52,3.33,3.33,0,0,1,1.43,1.49,5.13,5.13,0,0,1,.49,2.35v1.67a5.22,5.22,0,0,1-.49,2.37,3.38,3.38,0,0,1-1.43,1.49,4.51,4.51,0,0,1-2.25.52A4.56,4.56,0,0,1,47.22,177.08Zm3.86-2a2.72,2.72,0,0,0,.57-1.84v-1.67a2.65,2.65,0,0,0-.57-1.82,2.32,2.32,0,0,0-3.22,0,2.65,2.65,0,0,0-.57,1.82v1.67a2.72,2.72,0,0,0,.57,1.84,2.32,2.32,0,0,0,3.22,0Z"/><path class="cls-1" d="M66.19,173.49a2.32,2.32,0,0,0,.54,1.64,2,2,0,0,0,1.52.58,2.05,2.05,0,0,0,1.51-.52,1.93,1.93,0,0,0,.54-1.47l.14,2.11a3,3,0,0,1-1,1.26,2.83,2.83,0,0,1-1.72.51,3.2,3.2,0,0,1-2.59-1.08,4.6,4.6,0,0,1-.91-3v-6.15h2Zm4.11-6.15h2v10.11h-2Z"/><path class="cls-1" d="M83.28,167.34h2v10.11h-2Zm4.9,1.91a2.45,2.45,0,0,0-.93-.17,2,2,0,0,0-1.47.53,2,2,0,0,0-.52,1.44l-.2-2a3.62,3.62,0,0,1,1.21-1.4,2.81,2.81,0,0,1,1.63-.51,3.77,3.77,0,0,1,1.25.2,2.85,2.85,0,0,1,1,.59l-1.29,1.76A1.68,1.68,0,0,0,88.18,169.25Z"/><path class="cls-1" d="M113.11,167.34h2v10.11h-2Zm6.13,4a2.3,2.3,0,0,0-.55-1.65,2,2,0,0,0-1.56-.59,2.11,2.11,0,0,0-1.51.52,1.94,1.94,0,0,0-.53,1.45l-.2-2a3.6,3.6,0,0,1,1.22-1.41,3,3,0,0,1,1.67-.5,3.13,3.13,0,0,1,2.55,1.08,4.62,4.62,0,0,1,.9,3v6.13h-2Z"/><path class="cls-1" d="M135,177.6l-1-.53a3.46,3.46,0,0,1-1.51-1.54,5.32,5.32,0,0,1-.52-2.46v-1.14a5.85,5.85,0,0,1,.5-2.56,3.58,3.58,0,0,1,1.45-1.62,4.53,4.53,0,0,1,2.3-.56,3.69,3.69,0,0,1,2.17.64,3.92,3.92,0,0,1,1.36,1.83,7.73,7.73,0,0,1,.48,2.87v.66h-6.82V171.6h4.93a3.4,3.4,0,0,0-.64-1.93,1.82,1.82,0,0,0-1.48-.68,2.15,2.15,0,0,0-1.75.74,3.18,3.18,0,0,0-.61,2.09v1.29a2.64,2.64,0,0,0,.66,1.93,2.55,2.55,0,0,0,1.88.67,3,3,0,0,0,1.2-.25,3.49,3.49,0,0,0,1.06-.68l1.3,1.31a5.46,5.46,0,0,1-1.68,1.11,4.71,4.71,0,0,1-1.88.4Z"/><path class="cls-1" d="M153.64,177.6l-1-.53a3.48,3.48,0,0,1-1.52-1.54,5.32,5.32,0,0,1-.52-2.46v-1.14a6,6,0,0,1,.5-2.56,3.6,3.6,0,0,1,1.46-1.62,4.48,4.48,0,0,1,2.3-.56,3.68,3.68,0,0,1,2.16.64,3.93,3.93,0,0,1,1.37,1.83,8,8,0,0,1,.47,2.87v.66h-6.82V171.6H157a3.4,3.4,0,0,0-.64-1.93,1.8,1.8,0,0,0-1.47-.68,2.12,2.12,0,0,0-1.75.74,3.18,3.18,0,0,0-.62,2.09v1.29a2.64,2.64,0,0,0,.66,1.93,2.55,2.55,0,0,0,1.88.67,3,3,0,0,0,1.2-.25,3.38,3.38,0,0,0,1.06-.68l1.31,1.31a5.39,5.39,0,0,1-1.69,1.11,4.68,4.68,0,0,1-1.88.4Z"/><path class="cls-1" d="M170.89,177.14a3.06,3.06,0,0,1-1.2-1.4,5.54,5.54,0,0,1-.4-2.22v-2.23a5.71,5.71,0,0,1,.39-2.23,3,3,0,0,1,1.17-1.41,3.37,3.37,0,0,1,1.83-.48,3.07,3.07,0,0,1,1.65.46,3.57,3.57,0,0,1,1.2,1.32l-.21,2.06a2.35,2.35,0,0,0-.23-1.1,1.62,1.62,0,0,0-.68-.69,2.2,2.2,0,0,0-1.07-.24,1.92,1.92,0,0,0-1.53.61,2.53,2.53,0,0,0-.54,1.73v2.2a2.46,2.46,0,0,0,.54,1.7,2,2,0,0,0,1.53.6,2.2,2.2,0,0,0,1.07-.25,1.69,1.69,0,0,0,.68-.72,2.41,2.41,0,0,0,.23-1.12l.14,2.13a2.88,2.88,0,0,1-1,1.26,2.76,2.76,0,0,1-1.69.51A3.45,3.45,0,0,1,170.89,177.14Zm4.43-13.85h2v14.16h-2Z"/><path class="cls-1" d="M191,177.6l-.78-.18a5.82,5.82,0,0,1-1.47-.52,6.07,6.07,0,0,1-1.26-.88l1.18-1.45a6.64,6.64,0,0,0,1.63.93,4.39,4.39,0,0,0,1.6.32,3.42,3.42,0,0,0,1.76-.37,1.19,1.19,0,0,0,.59-1.1.86.86,0,0,0-.32-.73,1.75,1.75,0,0,0-.8-.32,12.18,12.18,0,0,0-1.34-.15h-.49a7.66,7.66,0,0,1-1.66-.29,2.26,2.26,0,0,1-1.14-.78,2.65,2.65,0,0,1-.45-1.65,3.26,3.26,0,0,1,.44-1.78,2.62,2.62,0,0,1,1.3-1.07,5.69,5.69,0,0,1,2.17-.36,7.36,7.36,0,0,1,1.51.15,7,7,0,0,1,1.37.43,7.54,7.54,0,0,1,1.25.73L194.89,170a6.88,6.88,0,0,0-1.5-.73A4.62,4.62,0,0,0,192,169a2.74,2.74,0,0,0-1.52.34,1.19,1.19,0,0,0-.5,1,.69.69,0,0,0,.28.61,1.77,1.77,0,0,0,.73.28c.29,0,.71.08,1.25.11h.37a8.25,8.25,0,0,1,1.8.29,2.44,2.44,0,0,1,1.26.84,3,3,0,0,1,.5,1.83,3.27,3.27,0,0,1-.46,1.81,2.89,2.89,0,0,1-1.41,1.08,6.69,6.69,0,0,1-2.36.36Z"/><path class="cls-1" d="M221.6,177.08a3.35,3.35,0,0,1-1.43-1.5,5.31,5.31,0,0,1-.49-2.39v-1.64a5.13,5.13,0,0,1,.49-2.35,3.33,3.33,0,0,1,1.43-1.49,4.62,4.62,0,0,1,2.25-.52,4.67,4.67,0,0,1,2.25.52,3.31,3.31,0,0,1,1.42,1.49,5.13,5.13,0,0,1,.5,2.35v1.67a5.22,5.22,0,0,1-.5,2.37,3.36,3.36,0,0,1-1.42,1.49,4.56,4.56,0,0,1-2.25.52A4.51,4.51,0,0,1,221.6,177.08Zm3.86-2a2.72,2.72,0,0,0,.57-1.84v-1.67a2.65,2.65,0,0,0-.57-1.82,2.32,2.32,0,0,0-3.22,0,2.65,2.65,0,0,0-.57,1.82v1.67a2.72,2.72,0,0,0,.57,1.84,2.32,2.32,0,0,0,3.22,0Z"/><path class="cls-1" d="M240.56,173.49a2.32,2.32,0,0,0,.54,1.64,2,2,0,0,0,1.53.58,2.07,2.07,0,0,0,1.51-.52,1.92,1.92,0,0,0,.53-1.47l.14,2.11a2.93,2.93,0,0,1-1,1.26,2.86,2.86,0,0,1-1.73.51,3.18,3.18,0,0,1-2.58-1.08,4.55,4.55,0,0,1-.91-3v-6.15h2Zm4.11-6.15h2v10.11h-2Z"/><path class="cls-1" d="M257.65,167.34h2v10.11h-2Zm4.9,1.91a2.4,2.4,0,0,0-.92-.17,2,2,0,0,0-1.47.53,1.93,1.93,0,0,0-.52,1.44l-.21-2a3.79,3.79,0,0,1,1.21-1.4,2.82,2.82,0,0,1,1.64-.51,3.77,3.77,0,0,1,1.25.2,3,3,0,0,1,1,.59l-1.3,1.76A1.55,1.55,0,0,0,262.55,169.25Z"/><path class="cls-1" d="M287.48,167.34h2v10.11h-2Zm6.14,4a2.3,2.3,0,0,0-.56-1.65,2.39,2.39,0,0,0-3.06-.07,1.9,1.9,0,0,0-.53,1.45l-.21-2a3.55,3.55,0,0,1,1.23-1.41,3,3,0,0,1,1.67-.5,3.13,3.13,0,0,1,2.54,1.08,4.62,4.62,0,0,1,.9,3v6.13h-2Z"/><path class="cls-1" d="M309.34,177.6l-1-.53a3.48,3.48,0,0,1-1.52-1.54,5.32,5.32,0,0,1-.52-2.46v-1.14a6,6,0,0,1,.5-2.56,3.6,3.6,0,0,1,1.46-1.62,4.5,4.5,0,0,1,2.3-.56,3.68,3.68,0,0,1,2.16.64,3.93,3.93,0,0,1,1.37,1.83,8,8,0,0,1,.47,2.87v.66h-6.82V171.6h4.93a3.4,3.4,0,0,0-.64-1.93,1.8,1.8,0,0,0-1.47-.68,2.12,2.12,0,0,0-1.75.74,3.18,3.18,0,0,0-.62,2.09v1.29a2.64,2.64,0,0,0,.66,1.93,2.55,2.55,0,0,0,1.88.67,3,3,0,0,0,1.2-.25,3.38,3.38,0,0,0,1.06-.68l1.31,1.31a5.39,5.39,0,0,1-1.69,1.11,4.68,4.68,0,0,1-1.88.4Z"/><path class="cls-1" d="M328,177.6l-1-.53a3.46,3.46,0,0,1-1.51-1.54,5.32,5.32,0,0,1-.52-2.46v-1.14a5.85,5.85,0,0,1,.5-2.56,3.58,3.58,0,0,1,1.45-1.62,4.53,4.53,0,0,1,2.3-.56,3.63,3.63,0,0,1,2.16.64,3.87,3.87,0,0,1,1.37,1.83,7.73,7.73,0,0,1,.48,2.87v.66h-6.82V171.6h4.93a3.4,3.4,0,0,0-.64-1.93,1.82,1.82,0,0,0-1.48-.68,2.15,2.15,0,0,0-1.75.74,3.18,3.18,0,0,0-.61,2.09v1.29a2.64,2.64,0,0,0,.66,1.93,2.55,2.55,0,0,0,1.88.67,3,3,0,0,0,1.2-.25,3.49,3.49,0,0,0,1.06-.68l1.3,1.31a5.46,5.46,0,0,1-1.68,1.11,4.71,4.71,0,0,1-1.88.4Z"/><path class="cls-1" d="M345.26,177.14a3,3,0,0,1-1.19-1.4,5.53,5.53,0,0,1-.41-2.22v-2.23a5.52,5.52,0,0,1,.4-2.23,3,3,0,0,1,1.16-1.41,3.41,3.41,0,0,1,1.84-.48,3,3,0,0,1,1.64.46,3.41,3.41,0,0,1,1.2,1.32l-.2,2.06a2.48,2.48,0,0,0-.23-1.1,1.67,1.67,0,0,0-.68-.69,2.27,2.27,0,0,0-1.08-.24,1.92,1.92,0,0,0-1.52.61,2.53,2.53,0,0,0-.54,1.73v2.2a2.46,2.46,0,0,0,.54,1.7,1.94,1.94,0,0,0,1.52.6,2.27,2.27,0,0,0,1.08-.25,1.75,1.75,0,0,0,.68-.72,2.54,2.54,0,0,0,.23-1.12l.14,2.13a3,3,0,0,1-1,1.26,2.76,2.76,0,0,1-1.69.51A3.51,3.51,0,0,1,345.26,177.14Zm4.44-13.85h2v14.16h-2Z"/><path class="cls-1" d="M365.36,177.6l-.78-.18a6.11,6.11,0,0,1-1.47-.52,6,6,0,0,1-1.25-.88l1.18-1.45a6.41,6.41,0,0,0,1.62.93,4.39,4.39,0,0,0,1.6.32,3.43,3.43,0,0,0,1.77-.37,1.21,1.21,0,0,0,.59-1.1.88.88,0,0,0-.32-.73,1.8,1.8,0,0,0-.8-.32,12.41,12.41,0,0,0-1.35-.15h-.48a7.65,7.65,0,0,1-1.67-.29,2.28,2.28,0,0,1-1.13-.78,2.59,2.59,0,0,1-.46-1.65,3.35,3.35,0,0,1,.44-1.78,2.65,2.65,0,0,1,1.31-1.07,5.65,5.65,0,0,1,2.17-.36,7.27,7.27,0,0,1,1.5.15,6.83,6.83,0,0,1,1.37.43,7.24,7.24,0,0,1,1.26.73l-1.2,1.45a6.82,6.82,0,0,0-1.49-.73,4.67,4.67,0,0,0-1.44-.24,2.72,2.72,0,0,0-1.52.34,1.18,1.18,0,0,0-.51,1,.7.7,0,0,0,.29.61,1.67,1.67,0,0,0,.73.28c.29,0,.7.08,1.24.11h.37a8.46,8.46,0,0,1,1.81.29,2.41,2.41,0,0,1,1.25.84,2.89,2.89,0,0,1,.51,1.83,3.27,3.27,0,0,1-.47,1.81,2.8,2.8,0,0,1-1.41,1.08,6.62,6.62,0,0,1-2.36.36Z"/></svg>