<svg id="Capa_1" data-name="Capa 1" xmlns="http://www.w3.org/2000/svg" viewBox="0 0 400 225"><defs><style>.cls-1{fill:#a6c1de;}.cls-2{fill:#fff;}</style></defs><title>Mesa de trabajo 2 copia 3</title><path class="cls-1" d="M345.39,114.73c0-9.2.27-18.41-.11-27.59-.19-4.58,1.94-4.8,5.46-4.72,3.31.07,5.68-.18,5.58,4.6-.33,15.13,0,30.27-.21,45.41-.07,4.08.65,6.18,5.22,5.41,1.87-.32,3.89.25,5.73-.11,5.86-1.16,6.06,2.24,5.83,6.54-.12,2.44-1.25,2.78-3.23,2.76-6.71-.06-13.42-.18-20.12.05-3.26.11-4.28-.91-4.22-4.19C345.52,133.51,345.39,124.12,345.39,114.73Z"/><path class="cls-1" d="M324.45,110.38c0,7.85.12,15.71-.06,23.56-.08,3,.88,4.14,3.9,3.88,2.47-.21,5,.07,7.46-.07,3.31-.18,5.73-.26,5.65,4.54-.06,4.41-1.81,4.92-5.44,4.78-6.12-.25-12.26-.22-18.38,0-3.08.11-3.86-1-3.84-3.93.11-19,.2-37.92,0-56.88-.06-5.09,3.16-3.61,5.71-3.72s5.34-.82,5.14,3.72C324.19,94.28,324.45,102.34,324.45,110.38Z"/><path class="cls-1" d="M308.74,141.51c-2.69-17.44-5.81-34.81-8.36-52.27-.8-5.42-2-9-8.64-6.72-6.09-2.27-7.52,1-8.32,6.6-2.49,17.27-5.37,34.49-8.44,51.67-.86,4.77,0,6,5.1,6.05,6.26,0,4.78-4.38,5.12-7.44.46-4.14,1.85-5.63,6.33-5.64s6.19,1.48,6.25,5.66c0,1.14.31,2.28.42,3.42.6,6.73,5.77,3.39,8.83,3.61C311.35,146.77,309,143.13,308.74,141.51Zm-15.61-16.76c-1.87-.17-3.81.46-5.72-.58q1.83-13,3.66-26l.8,0c1.19,8,2.32,16,3.6,24C295.8,124.19,295.11,124.94,293.13,124.75Z"/><path class="cls-2" d="M259.38,147.09a19,19,0,0,1-7.24-1.33,7.8,7.8,0,0,1-3.91-2.85,38.89,38.89,0,0,1-5.35-10.75,59.92,59.92,0,0,1-2.54-21.11,71.27,71.27,0,0,1,4.5-22,51.36,51.36,0,0,1,7.23-13.24,35.7,35.7,0,0,1,6.41-6.47,7.38,7.38,0,0,1,3.78-1.44,21.55,21.55,0,0,1,2.52-.15,20.48,20.48,0,0,1,9.86,2.54,3.63,3.63,0,0,1,2.08,2.16A10.74,10.74,0,0,1,277,75a32,32,0,0,1-1.38,8.21,40.3,40.3,0,0,1-3,8.2,12.49,12.49,0,0,1-1,1.62,2.93,2.93,0,0,1-2.51,1.38,4.16,4.16,0,0,1-.6,0,23.27,23.27,0,0,1-3.54-.9c-1-.33-2.08-.71-3.09-1.08l-2.11-.75a7.09,7.09,0,0,0-1.16-.25l-.26,0-.29,0a1.36,1.36,0,0,0-1.22.79,33.83,33.83,0,0,0-3.1,8.06,47.13,47.13,0,0,0-1.51,15.34c.08,1.16.28,2.32.46,3.43.1.59.2,1.18.29,1.77a1.24,1.24,0,0,0,1.23,1.14h.44c.58,0,1.16,0,1.74,0l1.14,0c.83,0,1.65-.1,2.47-.16,1.25-.09,2.54-.19,3.8-.19,1.8,0,2.88.56,3.45,1.77a9.91,9.91,0,0,1,.73,2.27,45.16,45.16,0,0,1,.6,11.33,26.94,26.94,0,0,1-1,6.68,3.9,3.9,0,0,1-3.13,2.9,25.06,25.06,0,0,1-4.27.58l-.83,0Z"/><path class="cls-1" d="M210.34,147.22c-11,.76-11,.76-13.92-8.81-1.73-5.65-3.46-11.29-5.34-17.45-5.7,6.38-3.79,13.49-3.7,20,.07,5-1,7-6.49,6.74-4.17-.2-4.53-1.8-4.51-5.15.11-18.22.26-36.45-.08-54.67-.1-5,2.23-4.85,5.82-5,3.88-.15,5.45.79,5.2,5a77.47,77.47,0,0,0,1.08,18.64q3.69-7.85,7.37-15.68c3.9-8.37,3.9-8.37,14.35-7.47-3.25,6.5-6.25,12.86-9.59,19a11.41,11.41,0,0,0-.85,9.78C203.41,123.71,206.74,135.3,210.34,147.22Z"/><path class="cls-1" d="M104.45,109.58c0,7.48.15,15,0,22.44-.28,10.82-5.55,15.87-16.1,15.75-9.53-.1-14.61-5.44-14.69-15.91-.12-15.15.16-30.31-.15-45.45-.09-4.45,2-4.51,5.2-4.31,2.87.18,6-1.06,5.86,4.23-.37,13.8-.12,27.61-.12,41.42,0,1.34,0,2.68,0,4-.11,3.41.8,6.52,4.69,6.58s4.78-3,4.77-6.45c-.05-14.39,0-28.77,0-43.15,0-6.63,2-8.06,8.54-6.69,2.71.57,2,2.39,2,3.92C104.49,93.85,104.46,101.72,104.45,109.58Z"/><path class="cls-1" d="M140.47,113.8c0-6.52-.35-13.06.08-19.55.59-8.64,5.74-13.17,14.21-13.28,9.68-.13,14.56,3.82,15.82,12.87a33.35,33.35,0,0,1,.32,4c.14,5.57-4,8.31-9,6-2.22-1-1.22-3-1.33-4.51-.27-3.72.82-8.87-4.61-8.89-5.79,0-4.83,5.34-4.86,9.24-.08,10.17,0,20.33,0,30.49a21.35,21.35,0,0,0,.56,5.11,4.39,4.39,0,0,0,8.46-.2,32.11,32.11,0,0,0,.39-5.72c.07-7.32.68-7.8,7.72-7,1.91.23,2.78.82,2.7,2.74-.13,3.26,0,6.54-.35,9.76-1.15,9.08-6.08,13-15.79,12.87-8.47-.11-13.64-4.64-14.2-13.28C140.11,127.62,140.47,120.7,140.47,113.8Z"/><path class="cls-1" d="M65.92,140.35c-1.6-.23-2.31-1.46-1.52-3.25,4.77-10.67,1.44-22,2.52-31.1,0-9.32.21-16.81,0-24.28C66.44,69,59.73,62.35,47.56,62.28c-12.87-.08-20,6.3-20.25,19.21q-.52,22.8,0,45.63c.29,12.95,7.34,19.56,20.15,19.22,4.65-.13,8.33.22,11.82,4.1,2.55,2.83,8.17,3.5,10.08.29C70.52,148.78,74,141.5,65.92,140.35Zm-19.07-5.78C42.38,134.46,41,131.08,41,127Q41.06,104.5,41,82c0-4.41,1.36-8,6.3-7.87,4.47.1,5.87,3.48,5.85,7.61-.06,7.73,0,15.46,0,23.19,0,7.24,0,14.49,0,21.74C53.19,131.1,51.79,134.68,46.85,134.57Z"/><path class="cls-2" d="M122.26,119.36l-12.7,1.85L130.48,62.3l.12.06c-1.84,14.21-3.67,28.42-5.52,42.77l11.49-.55c-6.52,19.47-13,38.8-19.48,58.14l-.12-.05C118.73,148.27,120.49,133.87,122.26,119.36Z"/></svg>