<svg id="Capa_1" data-name="Capa 1" xmlns="http://www.w3.org/2000/svg" viewBox="0 0 368 368.1"><defs><style>.cls-1{fill:#fff;}</style></defs><title>facebook-icon-white</title><path class="cls-1" d="M0,184V23C0,11,5.3,3.3,15.3.7A34.18,34.18,0,0,1,23.2,0H344.7C360.3,0,368,7.7,368,23.3V344.8c0,15.3-7.8,23.1-23,23.2-28.8,0-57.7-.1-86.5.1-4,0-4.9-1.2-4.9-5q.15-66.3,0-132.5c0-4.2,1.1-5.4,5.3-5.3,12.8.3,25.7.1,38.5.1,2.6,0,4.3-.1,4.7-3.4,2-16.5,4.1-33,6.4-49.5.5-3.6-2-2.7-3.8-2.8-12.3-.1-24.7,0-37,0-3.5,0-7-.1-10.5,0-2.6.1-3.5-.8-3.5-3.4.2-12.5-.1-25,.3-37.5s7.9-19.9,20.3-21.1c10.6-1,21.3-.6,32-.5,3.5,0,5-.6,5-4.6-.2-13.7-.1-27.3-.1-41,0-2.1.2-3.9-2.8-4.1-20.2-1.6-40.5-4.3-60.7.2a63,63,0,0,0-48.6,50c-3.4,17.9-1.7,35.9-2.2,53.8-.2,9.5,1.3,8.1-8.2,8.2-11.8.1-23.7.1-35.5-.1-3.2,0-4.3.8-4.3,4.1q.3,24,0,48c0,3.3,1.2,3.8,4.1,3.7,13.2-.1,26.3.1,39.5-.1,3.6-.1,4.5,1.1,4.5,4.6q-.15,67.05,0,134c0,3.3-1,4.2-4.3,4.2-57-.1-114,0-171-.1C7.9,367.9,0,359.7,0,345.5Z" transform="translate(0 0)"/></svg>