<?xml version="1.0" encoding="utf-8"?>
<!-- Generator: Adobe Illustrator 23.0.0, SVG Export Plug-In . SVG Version: 6.00 Build 0)  -->
<svg version="1.1" id="Capa_1" xmlns="http://www.w3.org/2000/svg" xmlns:xlink="http://www.w3.org/1999/xlink" x="0px" y="0px"
	 viewBox="0 0 368 368.1" style="enable-background:new 0 0 368 368.1;" xml:space="preserve">
<style type="text/css">
	.st0{fill:#020203;}
</style>
<g>
	<path class="st0" d="M0,184C0,130.3,0,76.7,0,23C0,11,5.3,3.3,15.3,0.7C17.8,0.1,20.5,0,23.2,0c107.2,0,214.3,0,321.5,0
		C360.3,0,368,7.7,368,23.3c0,107.2,0,214.3,0,321.5c0,15.3-7.8,23.1-23,23.2c-28.8,0-57.7-0.1-86.5,0.1c-4,0-4.9-1.2-4.9-5
		c0.1-44.2,0.1-88.3,0-132.5c0-4.2,1.1-5.4,5.3-5.3c12.8,0.3,25.7,0.1,38.5,0.1c2.6,0,4.3-0.1,4.7-3.4c2-16.5,4.1-33,6.4-49.5
		c0.5-3.6-2-2.7-3.8-2.8c-12.3-0.1-24.7,0-37,0c-3.5,0-7-0.1-10.5,0c-2.6,0.1-3.5-0.8-3.5-3.4c0.2-12.5-0.1-25,0.3-37.5
		c0.4-12.4,7.9-19.9,20.3-21.1c10.6-1,21.3-0.6,32-0.5c3.5,0,5-0.6,5-4.6c-0.2-13.7-0.1-27.3-0.1-41c0-2.1,0.2-3.9-2.8-4.1
		c-20.2-1.6-40.5-4.3-60.7,0.2c-25,5.6-43.8,24.9-48.6,50c-3.4,17.9-1.7,35.9-2.2,53.8c-0.2,9.5,1.3,8.1-8.2,8.2
		c-11.8,0.1-23.7,0.1-35.5-0.1c-3.2,0-4.3,0.8-4.3,4.1c0.2,16,0.2,32,0,48c0,3.3,1.2,3.8,4.1,3.7c13.2-0.1,26.3,0.1,39.5-0.1
		c3.6-0.1,4.5,1.1,4.5,4.6c-0.1,44.7-0.1,89.3,0,134c0,3.3-1,4.2-4.3,4.2c-57-0.1-114,0-171-0.1C7.9,367.9,0,359.7,0,345.5
		C0,291.7,0,237.8,0,184z"/>
</g>
<g>
</g>
<g>
</g>
<g>
</g>
<g>
</g>
<g>
</g>
<g>
</g>
</svg>
