<svg id="Capa_1" data-name="Capa 1" xmlns="http://www.w3.org/2000/svg" viewBox="0 0 48 48"><defs><style>.cls-1{fill:#fff;fill-rule:evenodd;}</style></defs><title>linkedIn-logo-white</title><path class="cls-1" d="M0,24A24,24,0,1,1,24,48,24,24,0,0,1,0,24Zm17-4.12H11.52V36.22H17Zm.36-5.06a2.83,2.83,0,0,0-3-2.82,2.83,2.83,0,1,0-.07,5.65h0A2.84,2.84,0,0,0,17.32,14.82Zm19.26,12c0-5-2.69-7.36-6.27-7.36a5.41,5.41,0,0,0-4.9,2.7V19.88H20c.07,1.53,0,16.34,0,16.34h5.44V27.09a3.77,3.77,0,0,1,.18-1.32,3,3,0,0,1,2.79-2c2,0,2.76,1.5,2.76,3.7v8.74h5.44Z" transform="translate(0 0)"/></svg>