<?xml version="1.0" encoding="utf-8"?>
<!-- Generator: Adobe Illustrator 23.0.0, SVG Export Plug-In . SVG Version: 6.00 Build 0)  -->
<svg version="1.1" id="Capa_1" xmlns="http://www.w3.org/2000/svg" xmlns:xlink="http://www.w3.org/1999/xlink" x="0px" y="0px"
	 viewBox="0 0 24 28" style="enable-background:new 0 0 24 28;" xml:space="preserve">
<style type="text/css">
	.st0{fill:none;stroke:#000000;stroke-width:2;stroke-linecap:round;stroke-linejoin:round;}
</style>
<title></title>
<g id="login">
	<line class="st0" x1="1" y1="14" x2="14" y2="14"/>
	<path d="M6,23v3h16V2H6v3H4V1c0-0.6,0.4-1,1-1h18c0.6,0,1,0.4,1,1v26c0,0.6-0.4,1-1,1H5c-0.6,0-1-0.4-1-1v-4H6z"/>
	<line class="st0" x1="14" y1="14" x2="10" y2="10"/>
	<line class="st0" x1="14" y1="14" x2="10" y2="18"/>
	<line class="st0" x1="5" y1="6" x2="5" y2="4"/>
	<line class="st0" x1="5" y1="24" x2="5" y2="22"/>
</g>
</svg>
