<svg id="Capa_1" data-name="Capa 1" xmlns="http://www.w3.org/2000/svg" viewBox="0 0 398.05 397.84"><defs><style>.cls-1{fill:#fff;}</style></defs><title>magnifyng-glass-icon-white</title><path class="cls-1" d="M222.13,3.33c-94,17.74-147.46,118.54-109.46,206.4l4.66,10.94-53.86,54C33.87,304.4,8.4,330.53,6.8,332.8,2.53,339.2-.4,352.4.67,360.67,4.27,390,35.47,407.73,62,395.6c7.07-3.33,14.8-10.53,62.67-58.4l54.8-54.67,8.93,4.14c20.8,9.33,47.73,14.4,69.87,12.8C324,294.8,376.53,251.6,394,187.87c4.67-17.07,5.87-44.4,2.8-62.4a152.06,152.06,0,0,0-58-94.94C326.4,21.07,303.2,10,287.33,5.87c-16.93-4.4-48.53-5.6-65.2-2.54Zm47.34,24c47.46,8.27,84.8,40.54,98.93,85.47A124.14,124.14,0,0,1,338,238c-15.73,15.87-33.87,26.53-56.13,32.93-9.07,2.67-13.6,3.07-32.54,3.07s-23.46-.4-32.66-3.07c-42.8-12.26-75.2-44.66-87.6-87.86-4.14-14.14-4.4-49.34-.54-63.74,16.67-62.4,78.67-102.93,140.94-92ZM133.73,244.27c3.34,4.53,17.74,18.8,23.6,23.6l3.34,2.66-49.34,49.6c-27.06,27.2-51.73,51.2-54.53,53.34-9.6,7.2-24.4,4.4-31.07-5.6C22,362.13,21.2,352.13,24,346.53,25.6,343.33,128,240,129.47,240c.53,0,2.4,2,4.26,4.27Z" transform="translate(-0.45 -1.63)"/><path class="cls-1" d="M238.67,64c-28.54,3.87-53.87,21.6-66.4,46.67-5.87,11.73-9.6,25.6-9.6,36,0,6.66,1.73,9.33,6,9.33s6-2.67,6-9.33c0-14.54,7.86-33.47,19.06-46.14C206.4,86.4,222.4,78.27,241.6,76.13c8-.93,11.47-1.86,12.67-3.6,2.26-3.2,2.26-4-.94-7.2-2.8-2.8-3.2-2.8-14.66-1.33Z" transform="translate(-0.45 -1.63)"/></svg>