<?xml version="1.0" encoding="utf-8"?>
<!-- Generator: Adobe Illustrator 23.0.0, SVG Export Plug-In . SVG Version: 6.00 Build 0)  -->
<svg version="1.1" id="Layer_1" xmlns="http://www.w3.org/2000/svg" xmlns:xlink="http://www.w3.org/1999/xlink" x="0px" y="0px"
	 viewBox="0 0 116.6 84" style="enable-background:new 0 0 116.6 84;" xml:space="preserve">
<style type="text/css">
	.st0{fill:#C1C1C0;}
	.st1{fill:none;stroke:#3D3D3D;stroke-width:2;stroke-miterlimit:10;}
	.st2{fill:#E2E2E2;}
	.st3{fill:#53AF80;}
	.st4{fill:#8DCEA8;}
	
		.st5{fill:none;stroke:#3D3D3D;stroke-width:2;stroke-linecap:square;stroke-linejoin:round;stroke-miterlimit:10;stroke-dasharray:3,4;}
	.st6{fill:#3D3D3D;}
	.st7{fill:#FFFFFF;}
</style>
<path class="st0" d="M107.5,83H16.6c-2.8,0-5.1-2.6-5.1-5.4V34.4c0-2.8,2.3-5.4,5.1-5.4h90.9"/>
<path class="st1" d="M107.5,83H16.6c-2.8,0-5.1-2.6-5.1-5.4V34.4c0-2.8,2.3-5.4,5.1-5.4h90.9"/>
<path class="st2" d="M115.5,77.9c0,2.8-2.3,5.1-5.1,5.1H20.6c-2.8,0-5.1-2.3-5.1-5.1V34.1c0-2.8,2.3-5.1,5.1-5.1h89.8
	c2.8,0,5.1,2.3,5.1,5.1V77.9z"/>
<path class="st1" d="M115.5,77.9c0,2.8-2.3,5.1-5.1,5.1H20.6c-2.8,0-5.1-2.3-5.1-5.1V34.1c0-2.8,2.3-5.1,5.1-5.1h89.8
	c2.8,0,5.1,2.3,5.1,5.1V77.9z"/>
<line class="st1" x1="21.5" y1="38" x2="109.5" y2="38"/>
<rect x="27.5" y="1" class="st3" width="36" height="37"/>
<rect x="27.5" y="1" class="st1" width="36" height="37"/>
<rect x="32.5" y="1" class="st3" width="34" height="37"/>
<rect x="32.5" y="1" class="st1" width="34" height="37"/>
<rect x="37.5" y="1" class="st3" width="35" height="37"/>
<rect x="41.5" y="6" class="st4" width="25" height="32"/>
<path class="st3" d="M63.6,38.3c0.8-1.4,1.2-3,1.2-4.7c0-5.5-4.5-10-10-10s-10,4.5-10,10c0,1.8,0.5,3.5,1.3,4.9"/>
<rect x="37.5" y="1" class="st1" width="35" height="37"/>
<path class="st3" d="M67.1,14.5c-4.7,0-8.5-3.5-8.5-8.5h8.9L67.1,14.5z"/>
<path class="st3" d="M50.6,6c0,5-4.1,9-9.1,9V6H50.6z"/>
<rect x="41.5" y="6" class="st1" width="25" height="32"/>
<path class="st1" d="M50.6,6.4c0,4.7-3.8,8.5-8.5,8.5"/>
<path class="st1" d="M58.6,6.4c0,4.7,3.8,8.5,8.5,8.5"/>
<path class="st4" d="M90.6,52.2c0-3.7,3-6.7,6.7-6.7s6.7,3,6.7,6.7"/>
<path class="st1" d="M90.6,52.2c0-3.7,3-6.7,6.7-6.7s6.7,3,6.7,6.7"/>
<path class="st4" d="M80.6,52.2c0-4.4,3.6-8,8-8s8,3.6,8,8"/>
<path class="st1" d="M80.6,52.2c0-4.4,3.6-8,8-8s8,3.6,8,8"/>
<path class="st1" d="M63.6,38.3c0.8-1.4,1.2-3,1.2-4.7c0-5.5-4.5-10-10-10s-10,4.5-10,10c0,1.8,0.5,3.5,1.3,4.9"/>
<path class="st1" d="M20.5,53h33.6c2.8,0,4.4,0.8,4.4,3.6V78"/>
<path class="st1" d="M20.5,65h33.6c2.8,0,4.4,1.5,4.4,4.3V78"/>
<path class="st1" d="M109.5,53H75.7c-2.8,0-4.2,0.8-4.2,3.6V78"/>
<line class="st5" x1="64.5" y1="41" x2="64.5" y2="80"/>
<path class="st2" d="M5.5,60.9c-2.5,0-4.6-1.5-4.6-4s1.8-4,4.3-4h8.3V61L5.5,60.9z"/>
<path class="st1" d="M5.5,60.9c-2.5,0-4.6-1.5-4.6-4s1.8-4,4.3-4h8.3V61L5.5,60.9z"/>
<circle class="st6" cx="5.2" cy="56.6" r="1.9"/>
<rect x="76.5" y="18" class="st7" width="27" height="20"/>
<rect x="76.5" y="18" class="st1" width="27" height="20"/>
<line class="st1" x1="82.5" y1="27" x2="97.5" y2="27"/>
<line class="st1" x1="82.5" y1="31" x2="97.5" y2="31"/>
<line class="st1" x1="82.5" y1="35" x2="97.5" y2="35"/>
<path class="st3" d="M48.7,43H31.5c-1.2,0-2,1-2,2.2V53h21v-7.8C50.5,44,49.9,43,48.7,43z"/>
<path class="st1" d="M48.5,43h-17c-1.1,0-2,0.9-2,2v8h21v-8C50.5,43.9,49.6,43,48.5,43z"/>
<rect x="33.5" y="43" class="st6" width="6" height="11"/>
</svg>
