<svg id="Capa_1" data-name="Capa 1" xmlns="http://www.w3.org/2000/svg" viewBox="0 0 48 48"><defs><style>.cls-1{fill:#fff;fill-rule:evenodd;}</style></defs><title>whatsapp-logo-white</title><path class="cls-1" d="M24,48A24,24,0,1,1,48,24,24,24,0,0,1,24,48Zm.79-10.65A14.26,14.26,0,1,0,12.42,30.2l-2,7.4,7.57-2a14.31,14.31,0,0,0,6.82,1.73Z" transform="translate(0 0)"/><path class="cls-1" d="M18.32,33l-4.49,1.18L15,29.83l-.28-.45a11.86,11.86,0,1,1,10,5.56h0a11.84,11.84,0,0,1-6-1.65ZM32,26.48c-.09-.15-.33-.24-.68-.42s-2.11-1-2.44-1.16-.56-.18-.8.18-.92,1.16-1.13,1.4-.42.26-.77.08a9.36,9.36,0,0,1-2.87-1.77,10.3,10.3,0,0,1-2-2.47.51.51,0,0,1,.15-.72c.16-.16.36-.42.54-.63a2.55,2.55,0,0,0,.35-.59.66.66,0,0,0,0-.63c-.09-.18-.8-1.93-1.1-2.65s-.58-.6-.8-.61h-.68a1.29,1.29,0,0,0-.95.45,4,4,0,0,0-1.25,3A6.91,6.91,0,0,0,19,23.59,15.74,15.74,0,0,0,25.09,29a18.58,18.58,0,0,0,2,.75,4.82,4.82,0,0,0,2.25.15,3.7,3.7,0,0,0,2.4-1.7A2.94,2.94,0,0,0,32,26.48Z" transform="translate(0 0)"/></svg>