<?xml version="1.0" encoding="utf-8"?>
<!-- Generator: Adobe Illustrator 23.0.0, SVG Export Plug-In . SVG Version: 6.00 Build 0)  -->
<svg version="1.1" id="Capa_1" xmlns="http://www.w3.org/2000/svg" xmlns:xlink="http://www.w3.org/1999/xlink" x="0px" y="0px"
	 viewBox="0 0 523.3 638.9" style="enable-background:new 0 0 523.3 638.9;" xml:space="preserve">
<style type="text/css">
	.st0{fill:#020203;}
	.st1{fill:#323232;}
	.st2{fill:#757575;}
	.st3{fill:#EC6814;}
	.st4{fill:#FABF80;}
	.st5{fill:#08627C;}
	.st6{fill:#E6A964;}
	.st7{fill:#D15916;}
	.st8{fill:#F9BF80;}
	.st9{fill:#050302;}
</style>
<path class="st0" d="M280.5,0c5.9,2.7,12.4,2.8,18.5,4.4c35.9,9.1,60.5,31.5,76.5,64.2c9.5,19.5,15.2,40.1,17.3,61.6
	c0.2,1.9,0.3,3.8,2.4,4.6c9.9,3.8,12.9,12.2,13.5,21.4c0.6,9.1,1.4,18.3-3.1,26.9c-0.9,1.7-0.1,3.1,0.9,4.6c3.8,5.2,5,11.1,5,17.5
	c0,6.5,0,13,0,19.5c-0.2,19.4-13.9,31.1-33.1,28c-3.6-0.6-2.9,1.4-2.9,3.3c0,10.7-0.1,21.3-2.4,31.8c-4.9,22.4-15.9,41.2-33.5,55.8
	c-4.9,4.1-7,7.9-6.6,14.2c0.7,12.9-2.2,9.7,10.3,13.2c34.2,9.7,67.9,20.9,100.6,35.2c25.1,11,40.8,29.8,50.4,55
	c8.9,23.6,13.1,48,16.2,72.8c3.4,26.6,7.1,53.1,10.5,79.7c0.7,5.3,1.9,10.5,1.7,15.8c0.7,1.6,0.2,3.3,0.4,4.9c0.7,6,0.7,6-5.5,6
	c-10.1,0-10.1,0-13.5-9.9c-3-11.8-3.5-24-5.3-36.1c-5-32.6-7.5-65.6-14.3-97.9c-4-19.2-10.4-37.5-22.1-53.7
	c-6.3-8.6-15.2-13.3-24.2-18c-2.6-1.3-3.7-0.2-3.8,2.5c0,0.8-0.1,1.7-0.1,2.5c0,19.3,0.1,38.7-0.1,58c0,4.3,1.2,7,5.1,9.3
	c16.1,9.6,24,24,24,42.7c0,28.2-0.2,56.3,0.1,84.5c0.1,8.9-2,15-15.1,15c-124.3,0.1-248.7,0.1-373,0c-10.9,0-15.5-4.5-15.6-15.5
	c-0.1-26.7-0.2-53.3,0.1-80c0.1-7.3,0.7-14.6,3.4-21.6c4.3-11.1,11.2-20.1,21.8-25.7c3.1-1.7,4.7-3.8,4.6-7.4
	c-0.1-20.3,0-40.7-0.1-61c0-5-0.6-5.1-5.2-3.2c-18.2,7.6-28.4,22.3-35.8,39.7c-8.6,20.5-12.4,42.1-15.3,64
	c-4.6,34.5-9,69-13.9,103.5c-0.3,2.5-0.6,5-2.7,6.8c-4.6,1.9-9.5,0.7-14.2,0.9C0.7,640-0.1,638.8,0,637c0.1-1.8-0.3-3.6,0.4-5.4
	c0.7-12,2.7-23.8,4.2-35.7c3.5-27.4,7-54.8,10.8-82.2c3.5-25.1,10.4-49.1,22.2-71.6c9.4-18,24.8-28.9,42.6-36.8
	c33.3-14.9,68.1-25.8,103.3-35.2c4.5-1.2,6.1-2.9,6.4-7.9c0.4-9.1-2-15.2-9.2-21.7c-22.7-20.3-32.6-46.8-32.7-77.1
	c0-3.3,1.1-7.4-0.5-9.8c-1.7-2.6-5.7,0.3-8.7,0.2c-13.7-0.4-25.5-11-26.2-24.6c-0.5-9.3-0.2-18.6-0.2-28c0-4.6,1.5-8.9,4.1-12.6
	c1.8-2.5,1.6-4.5,0.7-7.2c-3.9-11.9-4-23.9,0.3-35.7c1.8-5,5-9,10.3-10.8c3.4-1.1,3.1-4.1,3.3-6.6c1.5-15.3,5.2-30.2,10.5-44.6
	c10.9-29.6,28.4-54.1,56.9-69.5c12.6-6.9,26.3-10.3,40.2-12.9c1-0.2,2.5,0.5,2.8-1.3c2.3,0,4.7,0,7,0c2.7,0.8,5.3,0.8,8,0
	c6.3,0,12.7,0,19,0c0.7,0.6,1.3,0.6,2,0C278.5,0,279.5,0,280.5,0z"/>
<path class="st1" d="M256.5,0c-2.7,1.4-5.3,1.6-8,0C251.2,0,253.8,0,256.5,0z"/>
<path class="st2" d="M277.5,0c-0.7,1.5-1.3,1.3-2,0C276.2,0,276.8,0,277.5,0z"/>
<path class="st3" d="M262,619.9c-58.8,0-117.7,0-176.5,0.1c-4.5,0-5.9-1.1-5.9-5.7c0.2-23,0-46,0.1-69c0-9.4,0.9-18.7,8-26
	c3.5-3.6,7.6-5.8,12.3-7.2c7.3-2.2,9.1-4.5,9.1-12.2c0-27.3,0.1-54.7-0.1-82c0-4,1.1-5.9,5-7.1c6.7-2,13.3-4.3,19.8-6.9
	c4.4-1.8,4.9-0.2,4.9,3.8c-0.1,31.3-0.1,62.7-0.1,94c0,10.9,2.6,13.5,13.6,13.5c73.2,0,146.3,0,219.5,0c11,0,13.6-2.6,13.6-13.5
	c0-31.3,0.1-62.7-0.1-94c0-4.1,0.7-5.3,4.9-3.6c6.6,2.7,13.4,5,20.2,7.1c3.3,1,4.3,2.8,4.2,6.2c-0.1,27-0.1,54-0.1,81
	c0,9.7,1.1,11.2,10.4,14.2c11.7,3.8,17.3,12.5,18.5,24.2c1.2,11.5,0.5,23,0.5,34.5c0.1,14.2-0.2,28.3,0.1,42.5
	c0.1,4.8-0.9,6.5-6.2,6.4C379.3,619.8,320.7,619.9,262,619.9z"/>
<path class="st4" d="M262.3,201.7c30,0,60,0.1,89.9-0.1c4.8,0,5.7,1.4,5.7,5.9c-0.2,20.8,0.2,41.6-0.2,62.5
	c-0.8,39.2-30.7,73.7-69.6,78.8c-21.7,2.9-43.9,4-65.3-2.9c-34.3-11.2-56.6-42.8-57-80.4c-0.2-19.7,0.1-39.3-0.1-59
	c0-4.2,1.6-4.9,5.3-4.9C201.3,201.7,231.8,201.7,262.3,201.7z"/>
<path class="st3" d="M207.6,29.9c0,12.9,0.2,25-0.1,37.1c-0.2,5.9,1.6,10.7,5.2,15.2c11.9,15.1,28,22.4,46.7,23.7
	c23.1,1.6,43.5-4.8,58.7-23.5c3.6-4.5,5.5-9.3,5.3-15.1c-0.2-9.3-0.1-18.7,0-28c0-1.3-0.6-2.9,0.7-3.7c1.4-0.8,2.4,0.8,3.4,1.5
	c19.2,13.8,31.2,32.9,38.9,54.9c5.2,14.9,8.4,30.1,9.2,45.8c0.5,10,1.7,11.6,11.5,13.4c2,0.4,2.9,1.6,3.3,3.2
	c1.6,6.1,1.3,12.2,0.6,18.3c-0.3,2.6-1.8,3.6-4.5,3.4c-7.2-0.7-13.5,1.5-19,6.1c-1.7,1.4-3.6,1.5-5.6,1.5c-66.6,0-133.3,0-199.9,0
	c-2.3,0-4.2-0.4-6-1.9c-5.1-4.2-11-6.4-17.6-5.7c-4.4,0.4-5.7-1.5-5.7-5.4c0-4.5,0-9,0.1-13.5c0.1-3.7,1.4-6.1,5.9-6.2
	c5.9-0.1,8.8-3.4,9.2-9.7c1.4-20.9,5.2-41.3,13.8-60.5C171.2,59.3,185.5,41.8,207.6,29.9z"/>
<path class="st5" d="M261.6,497c-33.2,0-66.3-0.1-99.5,0.1c-4.7,0-5.8-1.3-5.8-5.9c0.2-30,0.2-60,0.1-90c0-3.8,1.1-5.5,5-6.5
	c9.4-2.3,18.7-4.9,27.8-7.9c4.1-1.3,6.6-0.6,9.3,2.9c17.9,23,36,45.8,54.1,68.6c6.4,8,11.9,8,18.1-0.1c18-22.9,36-45.8,53.8-68.9
	c2.4-3.1,4.7-3.9,8.5-2.8c9.9,3,19.8,5.8,29.8,8.4c3.3,0.9,4.5,2.5,4.5,5.9c-0.1,30.3-0.2,60.7,0,91c0,4.6-2,5.1-5.8,5
	C328.3,496.9,294.9,497,261.6,497z"/>
<path class="st5" d="M505.5,630c0,0.8-0.1,1.7,0,2.5c0.6,7.5,0.7,7.5-6.8,7.5c-158.6,0-317.2,0-475.8-0.1c-2.1,0-5.2,1.9-6.3-1.9
	c2.4-10.9,3.3-22,4.8-33c3-21.2,5.8-42.5,8.5-63.8c2.1-16.3,3.9-32.7,7.8-48.7c4.3-17.5,10.3-34.3,20.7-49.5
	c7.6-11.1,18.9-16.4,30.3-22c3.5-1.7,2.5,1.4,2.5,2.9c0.1,13.5,0,27,0,40.5c0,9-0.1,18,0,27c0,2.7-0.6,4.4-3.4,5.8
	c-15.6,7.7-24.3,20.5-25.5,37.8c-2.1,30.8-0.5,61.6-0.8,92.4c-0.1,6.1,3.4,9.4,9.5,10.2c1.8,0.2,3.7,0.2,5.5,0.2
	c123.6,0,247.3,0,370.9,0c1,0,2,0,3,0c7.9-0.3,11.2-3.5,11.2-11.4c0-23.3,0.1-46.7,0-70c0-9,0.7-18-1.1-26.9
	c-3-14.5-11-25.2-24.1-31.8c-3-1.5-4-3.2-3.9-6.5c0.1-21.8,0.1-43.7,0.1-65.5c0-5.4,0-5.2,5.3-3.1c23.8,9.5,34.6,29.5,42.3,52
	c6.7,19.5,9.6,39.7,12.3,60c2.4,18.3,4.8,36.6,7.3,54.9C501.8,603,502.8,616.6,505.5,630z"/>
<path class="st6" d="M315.5,367.1c0.8,3.5-1.1,6.5-3.6,9.7c-16,20.1-31.8,40.2-47.5,60.5c-2.2,2.8-3.3,3.2-5.7,0.1
	c-16.4-21-32.9-41.9-49.5-62.7c-3.4-4.3-1.9-8.9-2.1-13.4c-0.1-2.1,1.9-1.6,3-1.1c23,10.2,47.3,8.1,71.3,7.5
	c9.5-0.2,18.8-2.5,27.7-5.9C315.5,359.4,315.5,359.3,315.5,367.1z"/>
<path class="st7" d="M256.5,52.8c0,10.2-0.1,20.3,0.1,30.5c0.1,3.4-0.9,4.3-4.3,3.6c-10.4-2.2-18.7-7.5-25.3-15.7
	c-1.3-1.6-1.4-3.2-1.4-5.1c0-13.2,0.1-26.3-0.1-39.5c-0.1-3.2,1.2-4.3,4.1-5c7.6-1.9,15.4-2.7,23.1-3.5c3.2-0.3,4,0.7,4,3.8
	C256.4,32.2,256.5,42.5,256.5,52.8z"/>
<path class="st7" d="M274.4,52.5c0-10,0.1-20-0.1-30c0-3.2,1.1-4,4.1-3.7c8.4,0.7,16.3,3.1,24.3,5.5c1.9,0.6,2.6,1.7,2.6,3.7
	c-0.1,13.2,0,26.3,0,39.5c0,3.6-3,5.5-5.1,7.7c-6.1,6.1-13.4,10.2-22.1,11.7c-3.2,0.6-3.7-0.6-3.7-3.3
	C274.5,73.2,274.4,62.8,274.4,52.5z"/>
<path class="st8" d="M375.6,214.9c0-3.8-0.2-7.7,0-11.5c0.4-5.9,4.2-9.8,9.3-9.6c5,0.2,8.5,3.8,8.7,9.7c0.2,7.5,0.2,15,0,22.4
	c-0.2,5.8-3.8,9.5-8.8,9.6c-4.9,0.1-8.7-3.5-9.2-9.2C375.4,222.6,375.7,218.8,375.6,214.9C375.6,214.9,375.6,214.9,375.6,214.9z"/>
<path class="st8" d="M147.7,214.9c0,3.8,0.1,7.6,0,11.5c-0.2,5.5-3.6,9-8.5,9.3c-4.9,0.2-8.9-3.1-9.1-8.5c-0.3-8.3-0.3-16.6,0-24.9
	c0.2-5.1,4.1-8.3,8.8-8.3c4.8,0.1,8.4,3.7,8.8,9c0,0.3,0,0.7,0,1C147.8,207.5,147.8,211.2,147.7,214.9
	C147.8,214.9,147.8,214.9,147.7,214.9z"/>
<path class="st9" d="M124.1,531.1c6.6,0,13.3,0.1,19.9,0c2.8-0.1,3.6,0.9,3.7,3.7c0.4,12.4,0.5,12.4-11.6,12.4
	c-10.6,0-21.3-0.1-31.9,0.1c-3.5,0.1-4.5-1.2-4.6-4.6c-0.1-11.5-0.3-11.5,11.4-11.5C115.4,531.1,119.7,531.1,124.1,531.1z"/>
<path class="st9" d="M399.7,531.1c6.6,0,13.3,0.2,19.9-0.1c3.3-0.1,4.2,1.1,4.2,4.3c0.2,11.8,0.3,11.8-11.8,11.8
	c-10.6,0-21.3-0.1-31.9,0c-2.9,0-4.1-0.8-4.2-3.9c-0.4-12.2-0.5-12.2,11.7-12.2C391.7,531.1,395.7,531.1,399.7,531.1z"/>
</svg>
