<?xml version="1.0" encoding="utf-8"?>
<!-- Generator: Adobe Illustrator 23.0.0, SVG Export Plug-In . SVG Version: 6.00 Build 0)  -->
<svg version="1.1" id="Capa_1" xmlns="http://www.w3.org/2000/svg" xmlns:xlink="http://www.w3.org/1999/xlink" x="0px" y="0px"
	 viewBox="0 0 19.8 19.8" style="enable-background:new 0 0 19.8 19.8;" xml:space="preserve">
<title>checkmark-circle</title>
<g>
	<path d="M7.6,9.2c-0.4-0.4-1-0.4-1.4,0c-0.4,0.4-0.4,1,0,1.4l3,3c0.2,0.2,0.4,0.3,0.7,0.3l0,0c0.3,0,0.5-0.1,0.7-0.3l7-7.9
		c0.3-0.4,0.3-1.1-0.2-1.4c-0.4-0.3-1-0.3-1.3,0.1l-6.2,7.1L7.6,9.2z"/>
	<path d="M18.8,8.9L18.8,8.9c-0.5,0-1,0.4-1,1c0,4.4-3.6,7.9-8,7.9l0,0c-4.4,0-8-3.6-8-7.9c0-2.1,0.8-4.1,2.3-5.6
		C5.7,2.8,7.8,2,9.9,2c0.6,0,1.3,0.1,1.9,0.2c0.5,0.2,1.1-0.1,1.2-0.7c0.2-0.5-0.1-1.1-0.7-1.2c0,0-0.1,0-0.1,0
		C11.5,0.1,10.7,0,9.9,0C4.4,0,0,4.5,0,10c0,2.6,1.1,5.1,2.9,7c1.8,1.8,4.4,2.9,7,2.9l0,0c5.5,0,9.9-4.4,9.9-9.9
		C19.8,9.4,19.4,8.9,18.8,8.9z"/>
</g>
</svg>
