<svg id="Capa_1" data-name="Capa 1" xmlns="http://www.w3.org/2000/svg" viewBox="0 0 22 22"><defs><style>.cls-1{fill:#25b900;}.cls-2{fill:#fff;}</style></defs><title>checkmark-icon-green</title><circle class="cls-1" cx="11" cy="11" r="11"/><path class="cls-2" d="M8.68,10.29a1,1,0,0,0-1.43,0,1,1,0,0,0,0,1.42l3,3A1,1,0,0,0,11,15h0a1,1,0,0,0,.73-.34l7-8a1,1,0,0,0-.15-1.41,1,1,0,0,0-1.35.09L11,12.54Z" transform="translate(0 0)"/><path class="cls-2" d="M20,10h0a1,1,0,0,0-1,1,8,8,0,0,1-8,8h0A8,8,0,1,1,11,3a8.74,8.74,0,0,1,1.91.22,1,1,0,0,0,.59-1.91l-.12,0A10.6,10.6,0,0,0,11,1a10,10,0,0,0,0,20h0A10,10,0,0,0,21,11,1,1,0,0,0,20,10Z" transform="translate(0 0)"/></svg>