<svg width="51" height="51" viewBox="0 0 51 51" fill="none" xmlns="http://www.w3.org/2000/svg">
<path d="M33.7666 10.3593H29.6827C28.6587 10.3014 27.6341 10.4638 26.6782 10.8356C25.7223 11.2073 24.8573 11.7798 24.1415 12.5144C23.4257 13.2489 22.8758 14.1285 22.5288 15.0937C22.1819 16.0589 22.046 17.0872 22.1304 18.1094V21.6894H18.0244C17.854 21.6894 17.6906 21.7571 17.5701 21.8776C17.4495 21.9981 17.3818 22.1616 17.3818 22.332V27.5101C17.3818 27.6805 17.4495 27.8439 17.5701 27.9645C17.6906 28.085 17.854 28.1527 18.0244 28.1527H22.1304V41.2179C22.1304 41.3883 22.1981 41.5517 22.3186 41.6723C22.4391 41.7928 22.6025 41.8605 22.773 41.8605H28.1303C28.3007 41.8605 28.4641 41.7928 28.5847 41.6723C28.7052 41.5517 28.7729 41.3883 28.7729 41.2179V28.1459H33.5738C33.6582 28.1459 33.7418 28.1293 33.8197 28.097C33.8977 28.0647 33.9685 28.0174 34.0282 27.9577C34.0879 27.898 34.1352 27.8272 34.1675 27.7492C34.1998 27.6713 34.2164 27.5877 34.2164 27.5033V22.3253C34.2164 22.1548 34.1487 21.9914 34.0282 21.8709C33.9077 21.7504 33.7442 21.6826 33.5738 21.6826H28.7712V18.6455C28.7712 17.1895 29.1178 16.4471 31.0152 16.4471H33.7666C33.937 16.4471 34.1005 16.3794 34.221 16.2589C34.3415 16.1384 34.4092 15.9749 34.4092 15.8045V11.0086C34.4101 10.9237 34.3941 10.8394 34.3622 10.7606C34.3303 10.6819 34.2832 10.6102 34.2234 10.5499C34.1636 10.4895 34.0925 10.4415 34.0141 10.4088C33.9357 10.3761 33.8516 10.3593 33.7666 10.3593Z" fill="#010101"/>
<rect x="1" y="1" width="49" height="49" rx="9" fill="white" fill-opacity="0.47" stroke="black" stroke-width="2"/>
</svg>
