<?xml version="1.0" encoding="utf-8"?>
<!-- Generator: Adobe Illustrator 23.0.0, SVG Export Plug-In . SVG Version: 6.00 Build 0)  -->
<svg version="1.1" id="Paint_x5F_roller" xmlns="http://www.w3.org/2000/svg" xmlns:xlink="http://www.w3.org/1999/xlink" x="0px"
	 y="0px" viewBox="0 0 335.9 436.3" style="enable-background:new 0 0 335.9 436.3;" xml:space="preserve">
<style type="text/css">
	.st0{fill:#FFFFFF;}
</style>
<g id="Paint_x5F_roller_1_">
	<g>
		<path class="st0" d="M335.9,165.7v-123h-20.3V25.5c0-14-11.4-25.5-25.5-25.5H25.5C11.4,0,0,11.4,0,25.5v5.6v28v12.8
			C0,86,11.4,97.4,25.5,97.4h38.8c2.2,10.5,11.6,18.5,22.8,18.5s20.5-7.9,22.8-18.5h180.3c14,0,25.5-11.4,25.5-25.5V54.7h8.3v100.9
			l-163.2,29.1v35.2h-28.1v182.3c0,18.8,15.3,34.1,34.1,34.1s34.1-15.3,34.1-34.1V219.9h-28.1v-25.2L335.9,165.7z M303.6,47
			l-38.3,38.3h-39.2L272,39.5l-8.5-8.5l-54.4,54.4h-39.3l6.4-6.4l-8.5-8.5l-14.9,14.9H114L187.4,12h38.8l-49.9,49.9l8.5,8.5
			L243.2,12h39.3l-9.8,9.8l8.5,8.5l16.1-16.1c3.8,2.4,6.2,6.6,6.2,11.4L303.6,47L303.6,47z M110.3,33.5L131.9,12h38.6l-60.1,60.1
			L110.3,33.5L110.3,33.5z M110.3,16.6V12h4.6L110.3,16.6z M12.1,73.6c0.9,0.2,1.8,0.3,2.7,0.3c8.2,0,14.8-6.7,14.8-14.8v-2.3
			c0-2.4,2-4.4,4.4-4.4s4.4,2,4.4,4.4v9.5c0,10.3,8.4,18.7,18.7,18.7c0.8,0,1.6,0.1,2.3,0.4H25.5C18.6,85.4,13,80.2,12.1,73.6z
			 M87.1,103.8c-6.2,0-11.3-5.1-11.3-11.3v-0.9c0-10.3-8.4-18.7-18.7-18.7c-3.7,0-6.7-3-6.7-6.7v-9.5c0-9-7.4-16.4-16.4-16.4
			s-16.4,7.4-16.4,16.4V59c0,1.6-1.3,2.8-2.8,2.8S12,60.6,12,59.1v-28v-5.6C12,18,18,12,25.5,12h72.9v80.6
			C98.3,98.8,93.3,103.8,87.1,103.8z M290.1,85.4h-7.9L303.6,64v7.9C303.6,79.3,297.5,85.4,290.1,85.4z M166.7,424.3
			c-12.2,0-22.1-9.9-22.1-22.1v-152h44.2v152C188.8,414.4,178.9,424.3,166.7,424.3z M188.8,238.2h-44.2v-6.3h44.2V238.2z"/>
		<rect x="160.7" y="262.2" class="st0" width="12" height="15.2"/>
		<rect x="160.7" y="287.3" class="st0" width="12" height="114.1"/>
	</g>
</g>
</svg>
