<?xml version="1.0" encoding="utf-8"?>
<!-- Generator: Adobe Illustrator 23.0.0, SVG Export Plug-In . SVG Version: 6.00 Build 0)  -->
<svg version="1.1" id="Capa_1" xmlns="http://www.w3.org/2000/svg" xmlns:xlink="http://www.w3.org/1999/xlink" x="0px" y="0px"
	 viewBox="0 0 128 128.5" style="enable-background:new 0 0 128 128.5;" xml:space="preserve">
<style type="text/css">
	.st0{fill-rule:evenodd;clip-rule:evenodd;fill:#FFFFFF;}
	.st1{fill:#FFFFFF;}
</style>
<g>
	<g>
		<path class="st0" d="M64,2C40.5,2,21.5,21,21.5,44.5c0,18.8,12.2,34.7,29.1,40.4c2.1,0.4,2.9-0.9,2.9-2c0-1,0-4.4-0.1-7.9
			c-11.8,2.6-14.3-5-14.3-5c-1.9-4.9-4.7-6.2-4.7-6.2c-3.9-2.6,0.3-2.6,0.3-2.6c4.3,0.3,6.5,4.4,6.5,4.4c3.8,6.5,10,4.6,12.4,3.5
			c0.4-2.8,1.5-4.6,2.7-5.7c-9.5-1.1-19.4-4.7-19.4-21c0-4.6,1.7-8.4,4.4-11.4c-0.4-1.1-1.9-5.4,0.4-11.3c0,0,3.6-1.1,11.7,4.4
			c3.4-0.9,7-1.4,10.6-1.4c3.6,0,7.3,0.5,10.7,1.4c8.1-5.5,11.7-4.4,11.7-4.4c2.3,5.9,0.9,10.2,0.4,11.3c2.7,3,4.4,6.8,4.4,11.4
			c0,16.3-10,19.9-19.4,21c1.5,1.3,2.9,3.9,2.9,7.9c0,5.7,0,10.3,0,11.7c0,1.1,0.8,2.5,2.9,2c16.9-5.6,29.1-21.6,29.1-40.4
			C106.5,21,87.5,2,64,2z"/>
		<path class="st1" d="M37.6,63.1c-0.1,0.2-0.4,0.3-0.7,0.1c-0.3-0.1-0.5-0.4-0.4-0.6c0.1-0.2,0.4-0.3,0.7-0.1
			C37.5,62.6,37.7,62.9,37.6,63.1L37.6,63.1z M39.3,65c-0.2,0.2-0.6,0.1-0.9-0.2c-0.3-0.3-0.3-0.7-0.1-0.9c0.2-0.2,0.6-0.1,0.9,0.2
			C39.4,64.4,39.5,64.8,39.3,65L39.3,65z M41,67.4c-0.3,0.2-0.7,0-1-0.4c-0.3-0.4-0.3-0.8,0-1c0.3-0.2,0.7,0,1,0.4
			C41.2,66.8,41.2,67.3,41,67.4L41,67.4z M43.3,69.8c-0.2,0.3-0.7,0.2-1.1-0.2c-0.4-0.3-0.5-0.8-0.2-1.1c0.2-0.3,0.7-0.2,1.1,0.2
			C43.4,69.1,43.5,69.6,43.3,69.8L43.3,69.8z M46.4,71.2c-0.1,0.3-0.6,0.5-1.1,0.3c-0.5-0.1-0.8-0.5-0.7-0.9
			c0.1-0.3,0.6-0.5,1.1-0.3C46.2,70.5,46.5,70.8,46.4,71.2L46.4,71.2z M49.9,71.4c0,0.3-0.4,0.6-0.9,0.6c-0.5,0-0.9-0.3-0.9-0.6
			c0-0.4,0.4-0.6,0.9-0.7C49.5,70.8,49.9,71.1,49.9,71.4z M53.2,70.9c0.1,0.3-0.3,0.7-0.8,0.8c-0.5,0.1-1-0.1-1-0.5
			c-0.1-0.3,0.3-0.7,0.8-0.8C52.6,70.3,53.1,70.5,53.2,70.9L53.2,70.9z"/>
	</g>
	<g>
		<path class="st1" d="M24.9,108.8H14.2c-0.3,0-0.5,0.2-0.5,0.5v5.2c0,0.3,0.2,0.5,0.5,0.5h4.2v6.5c0,0-0.9,0.3-3.5,0.3
			c-3.1,0-7.3-1.1-7.3-10.5c0-9.4,4.4-10.6,8.6-10.6c3.6,0,5.2,0.6,6.2,0.9c0.3,0.1,0.6-0.2,0.6-0.5l1.2-5.1c0-0.2-0.1-0.3-0.2-0.4
			C23.5,95.4,21,94,14.8,94c-7.1,0-14.5,3-14.5,17.7c0,14.6,8.4,16.8,15.5,16.8c5.9,0,9.4-2.5,9.4-2.5c0.1-0.1,0.2-0.3,0.2-0.4
			v-16.3C25.4,109,25.1,108.8,24.9,108.8L24.9,108.8z M79.5,95.3h-6c-0.3,0-0.5,0.2-0.5,0.5c0,0,0,0,0,0l0,11.6h-9.4V95.8
			c0-0.3-0.2-0.5-0.5-0.5c0,0,0,0,0,0h-6c-0.3,0-0.5,0.2-0.5,0.5c0,0,0,0,0,0v31.5c0,0.3,0.2,0.5,0.5,0.5h6c0.3,0,0.5-0.2,0.5-0.5
			c0,0,0,0,0,0v-13.5H73l0,13.5c0,0.3,0.2,0.5,0.5,0.5h6c0.3,0,0.5-0.2,0.5-0.5c0,0,0,0,0,0V95.8C80,95.5,79.8,95.3,79.5,95.3z
			 M32.3,96c-2.1,0-3.9,1.8-3.9,3.9c0,2.2,1.7,3.9,3.9,3.9c2.1,0,3.9-1.8,3.9-3.9C36.2,97.8,34.5,96,32.3,96z M35.3,105.6h-6
			c-0.3,0-0.5,0.3-0.5,0.6V127c0,0.6,0.4,0.8,0.9,0.8h5.4c0.6,0,0.7-0.3,0.7-0.8v-6.3v-14.6C35.8,105.8,35.6,105.6,35.3,105.6
			C35.3,105.6,35.3,105.6,35.3,105.6L35.3,105.6z M102.9,105.7h-6c-0.3,0-0.5,0.2-0.5,0.5c0,0,0,0,0,0v15.5c0,0-1.5,1.1-3.7,1.1
			s-2.7-1-2.7-3.1v-13.5c0-0.3-0.2-0.5-0.5-0.5c0,0,0,0,0,0h-6.1c-0.3,0-0.5,0.2-0.5,0.5v14.5c0,6.3,3.5,7.8,8.3,7.8
			c3.9,0,7.1-2.2,7.1-2.2s0.2,1.2,0.2,1.3c0.1,0.1,0.2,0.3,0.4,0.3l3.9,0c0.3,0,0.5-0.2,0.5-0.5v0l0-21.2
			C103.4,105.9,103.2,105.7,102.9,105.7L102.9,105.7z M119.2,104.9c-3.4,0-5.7,1.5-5.7,1.5V95.8c0-0.3-0.2-0.5-0.5-0.5c0,0,0,0,0,0
			h-6c-0.3,0-0.5,0.2-0.5,0.5c0,0,0,0,0,0v31.5c0,0.3,0.2,0.5,0.5,0.5c0,0,0,0,0,0h4.2c0.2,0,0.3-0.1,0.4-0.3
			c0.1-0.2,0.3-1.5,0.3-1.5s2.5,2.3,7.1,2.3c5.5,0,8.6-2.8,8.6-12.5S122.6,104.9,119.2,104.9L119.2,104.9z M116.9,122.7
			c-2.1-0.1-3.5-1-3.5-1v-10c0,0,1.4-0.8,3.1-1c2.2-0.2,4.2,0.5,4.2,5.6C120.7,121.7,119.8,122.8,116.9,122.7L116.9,122.7z
			 M53.2,122.6c-0.3,0-0.9,0.1-1.6,0.1c-2.2,0-3-1-3-2.4v-8.9h4.5c0.3,0,0.5-0.2,0.5-0.5c0,0,0,0,0,0v-4.9c0-0.3-0.2-0.5-0.5-0.5
			c0,0,0,0,0,0h-4.5l0-6c0-0.2-0.1-0.3-0.4-0.3H42c-0.2,0-0.4,0.1-0.4,0.3v6.2c0,0-3.1,0.7-3.3,0.8c-0.2,0.1-0.4,0.3-0.4,0.5v3.9
			c0,0.3,0.2,0.5,0.5,0.5c0,0,0,0,0,0h3.2v9.3c0,6.9,4.9,7.6,8.1,7.6c1.5,0,3.3-0.5,3.6-0.6c0.2-0.1,0.3-0.3,0.3-0.5l0-4.3
			C53.7,122.8,53.5,122.6,53.2,122.6L53.2,122.6z"/>
	</g>
</g>
</svg>
