<?xml version="1.0" encoding="utf-8"?>
<!-- Generator: Adobe Illustrator 23.0.0, SVG Export Plug-In . SVG Version: 6.00 Build 0)  -->
<svg version="1.1" id="Capa_1" xmlns="http://www.w3.org/2000/svg" xmlns:xlink="http://www.w3.org/1999/xlink" x="0px" y="0px"
	 viewBox="0 0 16 16" style="enable-background:new 0 0 16 16;" xml:space="preserve">
<style type="text/css">
	.st0{fill:#FFFFFF;}
</style>
<path class="st0" d="M10.3,8.2L9.4,9.1l0.9,0.9l-1.2,1.2l4.3,4.3c0.6,0.6,1.5,0.6,2.1,0c0.6-0.6,0.6-1.5,0-2.1L10.3,8.2z M14.2,15
	c-0.4,0-0.8-0.3-0.8-0.8c0-0.4,0.3-0.8,0.8-0.8s0.8,0.3,0.8,0.8S14.7,15,14.2,15z"/>
<path class="st0" d="M3.6,8l0.9-0.6L6,5.7l0.9,0.9l0.9-0.9L7.7,5.6C7.9,5.1,8,4.6,8,4c0-2.2-1.8-4-4-4C3.4,0,2.9,0.1,2.4,0.3
	l2.9,2.9L3.2,5.3L0.3,2.4C0.1,2.9,0,3.4,0,4C0,6.1,1.6,7.7,3.6,8z"/>
<path class="st0" d="M8,10.8L8.9,10L8,9.1l5.7-5.7L14.9,3L16,0.8l-0.7-0.7l-2.3,1l-0.5,1.2L6.9,8L6,7.1L5.2,8c0,0,0.8,0.6-0.1,1.5
	C4.6,10,3.8,9.4,2.3,10.9C1.8,11.4,0.2,13,0.2,13s-0.6,1,0.6,2.2S3,15.8,3,15.8s1.6-1.6,2.1-2.1C6.5,12.3,6,11.4,6.4,11
	C7.3,10.1,8,10.8,8,10.8z M4.9,10.4l0.7,0.7l-3.8,3.8l-0.7-0.7L4.9,10.4z"/>
</svg>
