<svg width="51" height="51" viewBox="0 0 51 51" fill="none" xmlns="http://www.w3.org/2000/svg">
<rect x="1" y="1" width="49" height="49" rx="9" fill="white" fill-opacity="0.47" stroke="black" stroke-width="2"/>
<path d="M41.2383 19.4527C41.2133 18.1688 40.9699 16.8985 40.5185 15.6962C40.1193 14.6667 39.5096 13.7319 38.7283 12.9516C37.9471 12.1712 37.0116 11.5626 35.9817 11.1645C34.7793 10.7137 33.509 10.4703 32.2252 10.4447C30.5675 10.3669 30.0415 10.3478 25.8386 10.3478C21.6357 10.3478 21.1062 10.3669 19.4537 10.4378C18.1698 10.4629 16.8995 10.7063 15.6972 11.1576C14.6624 11.5449 13.725 12.1544 12.9512 12.9433C12.1647 13.7186 11.556 14.6555 11.1673 15.6893C10.7135 16.8912 10.4672 18.1614 10.4388 19.4458C10.3679 21.1034 10.3506 21.6294 10.3506 25.8341C10.3506 30.0387 10.3679 30.5648 10.4388 32.2172C10.4644 33.5012 10.7084 34.7716 11.1604 35.9737C11.5589 37.0028 12.1678 37.9373 12.9481 38.7176C13.7285 39.4979 14.663 40.1068 15.6921 40.5054C16.8945 40.9562 18.1647 41.1996 19.4486 41.2252C21.0993 41.2979 21.627 41.3152 25.8299 41.3152C30.0329 41.3152 30.5606 41.2979 32.2113 41.2252C33.4953 41.2002 34.7656 40.9568 35.9678 40.5054C36.9972 40.1074 37.932 39.4987 38.7124 38.7183C39.4928 37.9379 40.1015 37.0031 40.4995 35.9737C40.9502 34.7713 41.1936 33.5011 41.2193 32.2172C41.292 30.5665 41.3093 30.0387 41.3093 25.8358C41.3093 21.6329 41.3093 21.1052 41.2314 19.4544L41.2383 19.4527ZM38.4491 32.0961C38.439 33.0777 38.2587 34.0501 37.9161 34.9701C37.658 35.6384 37.263 36.2454 36.7564 36.7519C36.2499 37.2585 35.6429 37.6536 34.9746 37.9117C34.0545 38.2536 33.0821 38.4339 32.1006 38.4446C30.4672 38.5173 29.9775 38.5346 25.8455 38.5346C21.7135 38.5346 21.2169 38.5173 19.5904 38.4446C18.6088 38.4347 17.6363 38.2543 16.7164 37.9117C16.044 37.6644 15.436 37.2687 14.9376 36.7541C14.4249 36.2545 14.03 35.6468 13.7818 34.9753C13.4399 34.0552 13.2596 33.0828 13.2489 32.1013C13.1762 30.4679 13.1589 29.9782 13.1589 25.8462C13.1589 21.7142 13.1762 21.2176 13.2489 19.5911C13.2588 18.6095 13.4391 17.637 13.7818 16.7171C14.0269 16.0446 14.4222 15.4368 14.9376 14.9401C15.4381 14.4267 16.047 14.0318 16.7199 13.7842C17.64 13.4424 18.6123 13.2621 19.5939 13.2513C21.2273 13.1786 21.717 13.1613 25.849 13.1613C29.9809 13.1613 30.4775 13.1803 32.104 13.2513C33.0857 13.2614 34.0581 13.4417 34.9781 13.7842C35.6504 14.0309 36.2584 14.4259 36.7568 14.9401C37.2696 15.4397 37.6645 16.0473 37.9127 16.7188C38.2545 17.639 38.4348 18.6113 38.4456 19.5929C38.5183 21.2263 38.5356 21.716 38.5356 25.8479C38.5356 29.9799 38.5166 30.4644 38.4456 32.0978L38.4491 32.0961Z" fill="black"/>
<path d="M25.8364 17.8799C24.2622 17.8799 22.7233 18.3467 21.4144 19.2213C20.1054 20.0958 19.0853 21.3389 18.4828 22.7933C17.8804 24.2477 17.7228 25.8481 18.0299 27.3921C18.337 28.9361 19.0951 30.3543 20.2082 31.4674C21.3214 32.5806 22.7396 33.3387 24.2836 33.6458C25.8275 33.9529 27.4279 33.7952 28.8823 33.1928C30.3367 32.5904 31.5798 31.5702 32.4544 30.2613C33.329 28.9524 33.7958 27.4135 33.7958 25.8393C33.7958 23.7283 32.9572 21.7038 31.4646 20.2111C29.9719 18.7184 27.9473 17.8799 25.8364 17.8799ZM25.8364 30.9956C24.8159 30.9956 23.8183 30.693 22.9698 30.126C22.1212 29.559 21.4599 28.7532 21.0694 27.8104C20.6788 26.8676 20.5767 25.8301 20.7757 24.8292C20.9748 23.8283 21.4663 22.9089 22.1879 22.1873C22.9095 21.4657 23.8289 20.9743 24.8298 20.7752C25.8307 20.5761 26.8681 20.6783 27.8109 21.0688C28.7538 21.4593 29.5596 22.1207 30.1266 22.9692C30.6936 23.8177 30.9962 24.8153 30.9962 25.8358C30.9957 27.2041 30.4519 28.5163 29.4844 29.4838C28.5169 30.4514 27.2047 30.9951 25.8364 30.9956Z" fill="black"/>
<path d="M35.9691 17.5649C35.9691 17.9322 35.8602 18.2911 35.6562 18.5964C35.4522 18.9017 35.1623 19.1397 34.823 19.2802C34.4837 19.4208 34.1104 19.4575 33.7503 19.3859C33.3901 19.3142 33.0593 19.1374 32.7997 18.8778C32.54 18.6181 32.3632 18.2873 32.2915 17.9271C32.2199 17.567 32.2567 17.1937 32.3972 16.8544C32.5377 16.5152 32.7757 16.2252 33.081 16.0212C33.3863 15.8172 33.7453 15.7083 34.1125 15.7083C34.6049 15.7083 35.0772 15.9039 35.4253 16.2521C35.7735 16.6003 35.9691 17.0725 35.9691 17.5649Z" fill="black"/>
</svg>
